Benne-Regular-e.ufo
<glyph name="two" format="1">
  <advance width="422"/>
  <unicode hex="0032"/>
  <outline>
    <contour>
      <point x="365" y="-4"/>
      <point x="368" y="-2"/>
      <point x="372" y="1" type="curve" smooth="yes"/>
      <point x="376" y="4"/>
      <point x="378" y="11"/>
      <point x="378" y="20" type="curve" smooth="yes"/>
      <point x="378" y="29"/>
      <point x="384" y="49"/>
      <point x="395" y="81" type="curve" smooth="yes"/>
      <point x="406" y="112"/>
      <point x="412" y="130"/>
      <point x="412" y="133" type="curve" smooth="yes"/>
      <point x="412" y="136"/>
      <point x="411" y="138"/>
      <point x="408" y="138" type="curve" smooth="yes"/>
      <point x="399" y="138"/>
      <point x="393" y="135"/>
      <point x="389" y="128" type="curve"/>
      <point x="370" y="89"/>
      <point x="333" y="65"/>
      <point x="296" y="65" type="curve" smooth="yes"/>
      <point x="141" y="65" type="line"/>
      <point x="137" y="66" type="line"/>
      <point x="129" y="67"/>
      <point x="128" y="70"/>
      <point x="134" y="74" type="curve"/>
      <point x="139" y="78"/>
      <point x="157" y="95"/>
      <point x="188" y="124" type="curve" smooth="yes"/>
      <point x="248" y="182"/>
      <point x="294" y="225"/>
      <point x="294" y="291" type="curve" smooth="yes"/>
      <point x="294" y="357"/>
      <point x="251" y="413"/>
      <point x="190" y="413" type="curve" smooth="yes"/>
      <point x="146" y="413"/>
      <point x="110" y="401"/>
      <point x="81" y="377" type="curve" smooth="yes"/>
      <point x="69" y="367"/>
      <point x="59" y="357"/>
      <point x="50" y="346" type="curve" smooth="yes"/>
      <point x="32" y="325"/>
      <point x="32" y="325"/>
      <point x="25" y="299" type="curve" smooth="yes"/>
      <point x="23" y="293"/>
      <point x="27" y="290"/>
      <point x="32" y="290" type="curve" smooth="yes"/>
      <point x="36" y="290"/>
      <point x="40" y="292"/>
      <point x="45" y="297" type="curve"/>
      <point x="74" y="329"/>
      <point x="112" y="345"/>
      <point x="161" y="345" type="curve" smooth="yes"/>
      <point x="200" y="345"/>
      <point x="226" y="314"/>
      <point x="226" y="267" type="curve" smooth="yes"/>
      <point x="226" y="212"/>
      <point x="181" y="148"/>
      <point x="90" y="74" type="curve" smooth="yes"/>
      <point x="76" y="63"/>
      <point x="56" y="44"/>
      <point x="29" y="17" type="curve" smooth="yes"/>
      <point x="24" y="12"/>
      <point x="22" y="8"/>
      <point x="22" y="5" type="curve" smooth="yes"/>
      <point x="22" y="0"/>
      <point x="24" y="-3"/>
      <point x="29" y="-3" type="curve"/>
      <point x="57" y="-2" type="line" smooth="yes"/>
      <point x="94" y="-1"/>
      <point x="141" y="0"/>
      <point x="198" y="0" type="curve" smooth="yes"/>
      <point x="221" y="0"/>
      <point x="254" y="-1"/>
      <point x="298" y="-2" type="curve" smooth="yes"/>
      <point x="341" y="-3"/>
      <point x="363" y="-4"/>
      <point x="363" y="-4" type="curve" smooth="yes"/>
    </contour>
  </outline>
</glyph>
<glyph name="I" format="1">
  <advance width="340"/>
  <unicode hex="0049"/>
  <outline>
    <contour>
      <point x="176" y="0" type="line"/>
      <point x="293" y="-5" type="line"/>
      <point x="312" y="-5"/>
      <point x="322" y="-1"/>
      <point x="322" y="7" type="curve" smooth="yes"/>
      <point x="322" y="14"/>
      <point x="310" y="20"/>
      <point x="286" y="25" type="curve"/>
      <point x="237" y="33"/>
      <point x="210" y="53"/>
      <point x="210" y="98" type="curve" smooth="yes"/>
      <point x="210" y="550" type="line" smooth="yes"/>
      <point x="210" y="595"/>
      <point x="230" y="613"/>
      <point x="278" y="622" type="curve" smooth="yes"/>
      <point x="302" y="626"/>
      <point x="314" y="633"/>
      <point x="314" y="642" type="curve" smooth="yes"/>
      <point x="314" y="649"/>
      <point x="304" y="653"/>
      <point x="285" y="653" type="curve" smooth="yes"/>
      <point x="176" y="650" type="line"/>
      <point x="59" y="653" type="line" smooth="yes"/>
      <point x="40" y="653"/>
      <point x="30" y="649"/>
      <point x="30" y="642" type="curve" smooth="yes"/>
      <point x="30" y="633"/>
      <point x="42" y="626"/>
      <point x="66" y="622" type="curve" smooth="yes"/>
      <point x="113" y="613"/>
      <point x="130" y="597"/>
      <point x="130" y="550" type="curve" smooth="yes"/>
      <point x="130" y="98" type="line" smooth="yes"/>
      <point x="130" y="53"/>
      <point x="104" y="33"/>
      <point x="56" y="25" type="curve" smooth="yes"/>
      <point x="31" y="20"/>
      <point x="19" y="14"/>
      <point x="19" y="7" type="curve" smooth="yes"/>
      <point x="19" y="-1"/>
      <point x="29" y="-5"/>
      <point x="48" y="-5" type="curve"/>
    </contour>
  </outline>
</glyph>
<glyph name="X" format="1">
  <advance width="707"/>
  <unicode hex="0058"/>
  <outline>
    <contour>
      <point x="150" y="1" type="line"/>
      <point x="239" y="-1" type="line" smooth="yes"/>
      <point x="258" y="-1"/>
      <point x="268" y="3"/>
      <point x="268" y="10" type="curve" smooth="yes"/>
      <point x="268" y="17"/>
      <point x="257" y="24"/>
      <point x="235" y="30" type="curve"/>
      <point x="205" y="37"/>
      <point x="190" y="50"/>
      <point x="190" y="70" type="curve" smooth="yes"/>
      <point x="190" y="77"/>
      <point x="193" y="85"/>
      <point x="199" y="93" type="curve" smooth="yes"/>
      <point x="334" y="267" type="line"/>
      <point x="341" y="275"/>
      <point x="348" y="273"/>
      <point x="356" y="262" type="curve" smooth="yes"/>
      <point x="460" y="111" type="line" smooth="yes"/>
      <point x="468" y="100"/>
      <point x="472" y="89"/>
      <point x="472" y="78" type="curve" smooth="yes"/>
      <point x="472" y="55"/>
      <point x="453" y="38"/>
      <point x="420" y="29" type="curve" smooth="yes"/>
      <point x="403" y="24"/>
      <point x="395" y="18"/>
      <point x="395" y="11" type="curve" smooth="yes"/>
      <point x="395" y="4"/>
      <point x="405" y="0"/>
      <point x="424" y="0" type="curve" smooth="yes"/>
      <point x="527" y="1" type="line"/>
      <point x="670" y="-5" type="line"/>
      <point x="689" y="-5"/>
      <point x="699" y="-1"/>
      <point x="699" y="6" type="curve" smooth="yes"/>
      <point x="699" y="13"/>
      <point x="688" y="20"/>
      <point x="666" y="26" type="curve" smooth="yes"/>
      <point x="626" y="37"/>
      <point x="590" y="65"/>
      <point x="559" y="111" type="curve" smooth="yes"/>
      <point x="404" y="334" type="line"/>
      <point x="401" y="339"/>
      <point x="400" y="344"/>
      <point x="400" y="348" type="curve" smooth="yes"/>
      <point x="400" y="351"/>
      <point x="406" y="360"/>
      <point x="418" y="374" type="curve" smooth="yes"/>
      <point x="533" y="510" type="line" smooth="yes"/>
      <point x="592" y="579"/>
      <point x="635" y="618"/>
      <point x="663" y="625" type="curve" smooth="yes"/>
      <point x="685" y="631"/>
      <point x="696" y="638"/>
      <point x="696" y="645" type="curve" smooth="yes"/>
      <point x="696" y="652"/>
      <point x="686" y="656"/>
      <point x="667" y="656" type="curve"/>
      <point x="553" y="650" type="line"/>
      <point x="472" y="651" type="line" smooth="yes"/>
      <point x="453" y="651"/>
      <point x="443" y="647"/>
      <point x="443" y="640" type="curve" smooth="yes"/>
      <point x="443" y="631"/>
      <point x="454" y="625"/>
      <point x="476" y="620" type="curve"/>
      <point x="506" y="615"/>
      <point x="521" y="604"/>
      <point x="521" y="589" type="curve" smooth="yes"/>
      <point x="521" y="576"/>
      <point x="512" y="559"/>
      <point x="495" y="538" type="curve" smooth="yes"/>
      <point x="388" y="397" type="line" smooth="yes"/>
      <point x="382" y="389"/>
      <point x="377" y="385"/>
      <point x="374" y="385" type="curve" smooth="yes"/>
      <point x="370" y="385"/>
      <point x="365" y="390"/>
      <point x="358" y="400" type="curve" smooth="yes"/>
      <point x="267" y="528" type="line" smooth="yes"/>
      <point x="245" y="559"/>
      <point x="234" y="579"/>
      <point x="234" y="588" type="curve" smooth="yes"/>
      <point x="234" y="607"/>
      <point x="254" y="611"/>
      <point x="263" y="614" type="curve"/>
      <point x="267" y="615"/>
      <point x="277" y="619"/>
      <point x="294" y="624" type="curve" smooth="yes"/>
      <point x="310" y="629"/>
      <point x="318" y="635"/>
      <point x="318" y="642" type="curve" smooth="yes"/>
      <point x="318" y="649"/>
      <point x="308" y="652"/>
      <point x="289" y="652" type="curve" smooth="yes"/>
      <point x="190" y="650" type="line"/>
      <point x="47" y="655" type="line"/>
      <point x="28" y="655"/>
      <point x="18" y="651"/>
      <point x="18" y="644" type="curve" smooth="yes"/>
      <point x="18" y="636"/>
      <point x="27" y="629"/>
      <point x="45" y="624" type="curve" smooth="yes"/>
      <point x="63" y="619"/>
      <point x="77" y="614"/>
      <point x="86" y="609" type="curve"/>
      <point x="110" y="597"/>
      <point x="137" y="570"/>
      <point x="167" y="529" type="curve" smooth="yes"/>
      <point x="312" y="325" type="line"/>
      <point x="313" y="324"/>
      <point x="314" y="320"/>
      <point x="314" y="314" type="curve" smooth="yes"/>
      <point x="314" y="308"/>
      <point x="308" y="297"/>
      <point x="296" y="280" type="curve"/>
      <point x="171" y="124" type="line" smooth="yes"/>
      <point x="134" y="77"/>
      <point x="70" y="40"/>
      <point x="27" y="28" type="curve"/>
      <point x="6" y="21"/>
      <point x="-5" y="14"/>
      <point x="-5" y="7" type="curve" smooth="yes"/>
      <point x="-5" y="-1"/>
      <point x="5" y="-5"/>
      <point x="24" y="-5" type="curve"/>
    </contour>
  </outline>
</glyph>
<glyph name="macron" format="1">
  <advance width="400"/>
  <unicode hex="00AF"/>
  <outline>
    <contour>
      <point x="331" y="704" type="line"/>
      <point x="331" y="749" type="line"/>
      <point x="68" y="749" type="line"/>
      <point x="68" y="704" type="line"/>
    </contour>
  </outline>
</glyph>
<glyph name="knAnusvara" format="1">
  <advance width="524"/>
  <unicode hex="0C82"/>
  <outline>
    <contour>
      <point x="378" y="-14"/>
      <point x="474" y="109"/>
      <point x="474" y="250" type="curve" smooth="yes"/>
      <point x="474" y="392"/>
      <point x="379" y="519"/>
      <point x="263" y="519" type="curve" smooth="yes"/>
      <point x="146" y="519"/>
      <point x="50" y="392"/>
      <point x="50" y="250" type="curve" smooth="yes"/>
      <point x="50" y="109"/>
      <point x="146" y="-14"/>
      <point x="262" y="-14" type="curve" smooth="yes"/>
    </contour>
    <contour>
      <point x="177" y="71"/>
      <point x="87" y="144"/>
      <point x="87" y="259" type="curve" smooth="yes"/>
      <point x="87" y="369"/>
      <point x="168" y="441"/>
      <point x="263" y="441" type="curve" smooth="yes"/>
      <point x="357" y="441"/>
      <point x="438" y="369"/>
      <point x="438" y="254" type="curve" smooth="yes"/>
      <point x="438" y="144"/>
      <point x="347" y="71"/>
      <point x="262" y="71" type="curve" smooth="yes"/>
    </contour>
  </outline>
</glyph>
<glyph name="knII" format="1">
  <advance width="896"/>
  <unicode hex="0C88"/>
  <outline>
    <contour>
      <point x="762" y="-14"/>
      <point x="816" y="30"/>
      <point x="816" y="108" type="curve" smooth="yes"/>
      <point x="816" y="223"/>
      <point x="682" y="279"/>
      <point x="682" y="363" type="curve" smooth="yes"/>
      <point x="682" y="397"/>
      <point x="708" y="418"/>
      <point x="739" y="418" type="curve" smooth="yes"/>
      <point x="772" y="418"/>
      <point x="798" y="400"/>
      <point x="798" y="363" type="curve" smooth="yes"/>
      <point x="798" y="325"/>
      <point x="768" y="298"/>
      <point x="692" y="298" type="curve" smooth="yes"/>
      <point x="45" y="298" type="line"/>
      <point x="45" y="239" type="line"/>
      <point x="659" y="239" type="line" smooth="yes"/>
      <point x="764" y="239"/>
      <point x="836" y="286"/>
      <point x="836" y="369" type="curve" smooth="yes"/>
      <point x="836" y="434"/>
      <point x="792" y="479"/>
      <point x="739" y="479" type="curve" smooth="yes"/>
      <point x="681" y="479"/>
      <point x="642" y="441"/>
      <point x="642" y="379" type="curve" smooth="yes"/>
      <point x="642" y="277"/>
      <point x="765" y="228"/>
      <point x="765" y="134" type="curve" smooth="yes"/>
      <point x="765" y="102"/>
      <point x="746" y="87"/>
      <point x="716" y="77" type="curve" smooth="yes"/>
      <point x="697" y="70"/>
      <point x="676" y="72"/>
      <point x="661" y="67" type="curve" smooth="yes"/>
      <point x="644" y="61"/>
      <point x="633" y="48"/>
      <point x="633" y="30" type="curve" smooth="yes"/>
      <point x="633" y="5"/>
      <point x="652" y="-14"/>
      <point x="690" y="-14" type="curve" smooth="yes"/>
    </contour>
    <contour>
      <point x="480" y="-14"/>
      <point x="574" y="88"/>
      <point x="574" y="228" type="curve" smooth="yes"/>
      <point x="574" y="317"/>
      <point x="528" y="401"/>
      <point x="454" y="439" type="curve" smooth="yes"/>
      <point x="422" y="456"/>
      <point x="385" y="464"/>
      <point x="344" y="464" type="curve" smooth="yes"/>
      <point x="303" y="464"/>
      <point x="266" y="456"/>
      <point x="234" y="439" type="curve" smooth="yes"/>
      <point x="160" y="401"/>
      <point x="114" y="317"/>
      <point x="114" y="228" type="curve" smooth="yes"/>
      <point x="114" y="88"/>
      <point x="208" y="-14"/>
      <point x="344" y="-14" type="curve" smooth="yes"/>
    </contour>
    <contour>
      <point x="234" y="71"/>
      <point x="159" y="146"/>
      <point x="159" y="249" type="curve" smooth="yes"/>
      <point x="159" y="350"/>
      <point x="243" y="436"/>
      <point x="344" y="436" type="curve" smooth="yes"/>
      <point x="445" y="436"/>
      <point x="529" y="351"/>
      <point x="529" y="250" type="curve" smooth="yes"/>
      <point x="529" y="147"/>
      <point x="453" y="71"/>
      <point x="344" y="71" type="curve" smooth="yes"/>
    </contour>
    <contour>
      <point x="235" y="434" type="line"/>
      <point x="345" y="444" type="line"/>
      <point x="444" y="434" type="line"/>
      <point x="525" y="434"/>
      <point x="579" y="480"/>
      <point x="579" y="552" type="curve" smooth="yes"/>
      <point x="579" y="607"/>
      <point x="548" y="648"/>
      <point x="505" y="664" type="curve"/>
      <point x="490" y="644" type="line"/>
      <point x="514" y="635"/>
      <point x="536" y="610"/>
      <point x="536" y="576" type="curve" smooth="yes"/>
      <point x="536" y="536"/>
      <point x="505" y="509"/>
      <point x="444" y="509" type="curve" smooth="yes"/>
      <point x="115" y="509" type="line"/>
      <point x="115" y="434" type="line"/>
    </contour>
  </outline>
</glyph>
<glyph name="knU" format="1">
  <advance width="1034"/>
  <unicode hex="0C89"/>
  <outline>
    <contour>
      <point x="387" y="-14"/>
      <point x="473" y="42"/>
      <point x="473" y="150" type="curve" smooth="yes"/>
      <point x="473" y="229"/>
      <point x="461" y="284"/>
      <point x="461" y="339" type="curve" smooth="yes"/>
      <point x="461" y="396"/>
      <point x="492" y="441"/>
      <point x="551" y="441" type="curve" smooth="yes"/>
      <point x="605" y="441"/>
      <point x="639" y="406"/>
      <point x="639" y="339" type="curve" smooth="yes"/>
      <point x="639" y="276"/>
      <point x="634" y="220"/>
      <point x="634" y="150" type="curve" smooth="yes"/>
      <point x="634" y="65"/>
      <point x="679" y="-14"/>
      <point x="786" y="-14" type="curve" smooth="yes"/>
      <point x="899" y="-14"/>
      <point x="979" y="95"/>
      <point x="979" y="242" type="curve" smooth="yes"/>
      <point x="979" y="415"/>
      <point x="883" y="513"/>
      <point x="812" y="513" type="curve" smooth="yes"/>
      <point x="781" y="513"/>
      <point x="764" y="493"/>
      <point x="764" y="470" type="curve" smooth="yes"/>
      <point x="764" y="451"/>
      <point x="776" y="435"/>
      <point x="792" y="430" type="curve" smooth="yes"/>
      <point x="815" y="423"/>
      <point x="836" y="428"/>
      <point x="860" y="420" type="curve" smooth="yes"/>
      <point x="897" y="407"/>
      <point x="944" y="344"/>
      <point x="944" y="255" type="curve" smooth="yes"/>
      <point x="944" y="137"/>
      <point x="874" y="71"/>
      <point x="786" y="71" type="curve" smooth="yes"/>
      <point x="713" y="71"/>
      <point x="672" y="138"/>
      <point x="672" y="206" type="curve" smooth="yes"/>
      <point x="672" y="256"/>
      <point x="681" y="312"/>
      <point x="681" y="375" type="curve" smooth="yes"/>
      <point x="681" y="453"/>
      <point x="637" y="519"/>
      <point x="556" y="519" type="curve" smooth="yes"/>
      <point x="469" y="519"/>
      <point x="419" y="453"/>
      <point x="419" y="368" type="curve" smooth="yes"/>
      <point x="419" y="312"/>
      <point x="436" y="256"/>
      <point x="436" y="189" type="curve" smooth="yes"/>
      <point x="436" y="118"/>
      <point x="379" y="71"/>
      <point x="321" y="71" type="curve" smooth="yes"/>
      <point x="190" y="71"/>
      <point x="100" y="171"/>
      <point x="100" y="294" type="curve" smooth="yes"/>
      <point x="100" y="387"/>
      <point x="142" y="454"/>
      <point x="235" y="454" type="curve" smooth="yes"/>
      <point x="273" y="454"/>
      <point x="307" y="440"/>
      <point x="307" y="401" type="curve" smooth="yes"/>
      <point x="307" y="365"/>
      <point x="279" y="344"/>
      <point x="232" y="344" type="curve" smooth="yes"/>
      <point x="190" y="344"/>
      <point x="159" y="365"/>
      <point x="159" y="408" type="curve" smooth="yes"/>
      <point x="159" y="419"/>
      <point x="163" y="440"/>
      <point x="166" y="450" type="curve"/>
      <point x="177" y="475"/>
      <point x="172" y="501"/>
      <point x="157" y="497" type="curve"/>
      <point x="135" y="429" type="line"/>
      <point x="132" y="407"/>
      <point x="131" y="394"/>
      <point x="131" y="381" type="curve" smooth="yes"/>
      <point x="131" y="308"/>
      <point x="174" y="273"/>
      <point x="232" y="273" type="curve" smooth="yes"/>
      <point x="295" y="273"/>
      <point x="337" y="325"/>
      <point x="337" y="391" type="curve" smooth="yes"/>
      <point x="337" y="457"/>
      <point x="301" y="519"/>
      <point x="230" y="519" type="curve" smooth="yes"/>
      <point x="128" y="519"/>
      <point x="60" y="414"/>
      <point x="60" y="283" type="curve" smooth="yes"/>
      <point x="60" y="104"/>
      <point x="168" y="-14"/>
      <point x="319" y="-14" type="curve" smooth="yes"/>
    </contour>
  </outline>
</glyph>
<glyph name="knvR" format="1">
  <advance width="1112"/>
  <unicode hex="0C8B"/>
  <outline>
    <contour>
      <point x="972" y="-14"/>
      <point x="1052" y="95"/>
      <point x="1052" y="242" type="curve" smooth="yes"/>
      <point x="1052" y="415"/>
      <point x="956" y="513"/>
      <point x="885" y="513" type="curve" smooth="yes"/>
      <point x="854" y="513"/>
      <point x="837" y="493"/>
      <point x="837" y="470" type="curve" smooth="yes"/>
      <point x="837" y="451"/>
      <point x="849" y="435"/>
      <point x="865" y="430" type="curve" smooth="yes"/>
      <point x="888" y="423"/>
      <point x="909" y="428"/>
      <point x="933" y="420" type="curve" smooth="yes"/>
      <point x="970" y="407"/>
      <point x="1017" y="344"/>
      <point x="1017" y="255" type="curve" smooth="yes"/>
      <point x="1017" y="137"/>
      <point x="947" y="71"/>
      <point x="859" y="71" type="curve" smooth="yes"/>
      <point x="790" y="71"/>
      <point x="737" y="105"/>
      <point x="700" y="207" type="curve"/>
      <point x="680" y="188" type="line"/>
      <point x="698" y="61"/>
      <point x="773" y="-14"/>
      <point x="859" y="-14" type="curve" smooth="yes"/>
    </contour>
    <contour>
      <point x="308" y="-15"/>
      <point x="388" y="120"/>
      <point x="388" y="251" type="curve" smooth="yes"/>
      <point x="388" y="382"/>
      <point x="310" y="519"/>
      <point x="158" y="519" type="curve" smooth="yes"/>
      <point x="96" y="519"/>
      <point x="43" y="471"/>
      <point x="43" y="405" type="curve" smooth="yes"/>
      <point x="43" y="339"/>
      <point x="102" y="289"/>
      <point x="155" y="289" type="curve" smooth="yes"/>
      <point x="213" y="289"/>
      <point x="257" y="332"/>
      <point x="257" y="405" type="curve" smooth="yes"/>
      <point x="257" y="418"/>
      <point x="256" y="431"/>
      <point x="253" y="453" type="curve"/>
      <point x="222" y="470" type="line"/>
      <point x="225" y="460"/>
      <point x="229" y="439"/>
      <point x="229" y="428" type="curve" smooth="yes"/>
      <point x="229" y="382"/>
      <point x="199" y="355"/>
      <point x="157" y="355" type="curve" smooth="yes"/>
      <point x="111" y="355"/>
      <point x="80" y="377"/>
      <point x="80" y="405" type="curve" smooth="yes"/>
      <point x="80" y="432"/>
      <point x="109" y="449"/>
      <point x="153" y="449" type="curve" smooth="yes"/>
      <point x="266" y="449"/>
      <point x="348" y="365"/>
      <point x="348" y="249" type="curve" smooth="yes"/>
      <point x="348" y="149"/>
      <point x="281" y="57"/>
      <point x="158" y="57" type="curve" smooth="yes"/>
      <point x="108" y="57"/>
      <point x="78" y="83"/>
      <point x="78" y="112" type="curve" smooth="yes"/>
      <point x="78" y="140"/>
      <point x="107" y="161"/>
      <point x="154" y="161" type="curve" smooth="yes"/>
      <point x="196" y="161"/>
      <point x="226" y="122"/>
      <point x="226" y="76" type="curve" smooth="yes"/>
      <point x="226" y="65"/>
      <point x="222" y="44"/>
      <point x="219" y="34" type="curve"/>
      <point x="250" y="54" type="line"/>
      <point x="253" y="76"/>
      <point x="254" y="89"/>
      <point x="254" y="102" type="curve" smooth="yes"/>
      <point x="254" y="175"/>
      <point x="210" y="227"/>
      <point x="152" y="227" type="curve" smooth="yes"/>
      <point x="89" y="227"/>
      <point x="40" y="176"/>
      <point x="40" y="110" type="curve" smooth="yes"/>
      <point x="40" y="42"/>
      <point x="96" y="-15"/>
      <point x="165" y="-15" type="curve" smooth="yes"/>
    </contour>
    <contour>
      <point x="636" y="-14"/>
      <point x="716" y="95"/>
      <point x="716" y="242" type="curve" smooth="yes"/>
      <point x="716" y="415"/>
      <point x="620" y="509"/>
      <point x="549" y="509" type="curve" smooth="yes"/>
      <point x="518" y="509"/>
      <point x="501" y="493"/>
      <point x="501" y="470" type="curve" smooth="yes"/>
      <point x="501" y="464"/>
      <point x="530" y="453"/>
      <point x="569" y="434" type="curve" smooth="yes"/>
      <point x="616" y="411"/>
      <point x="681" y="344"/>
      <point x="681" y="255" type="curve" smooth="yes"/>
      <point x="681" y="137"/>
      <point x="611" y="71"/>
      <point x="523" y="71" type="curve" smooth="yes"/>
      <point x="454" y="71"/>
      <point x="401" y="105"/>
      <point x="364" y="207" type="curve"/>
      <point x="344" y="188" type="line"/>
      <point x="362" y="61"/>
      <point x="437" y="-14"/>
      <point x="523" y="-14" type="curve" smooth="yes"/>
    </contour>
    <contour>
      <point x="613" y="434" type="line" smooth="yes"/>
      <point x="694" y="434"/>
      <point x="748" y="480"/>
      <point x="748" y="552" type="curve" smooth="yes"/>
      <point x="748" y="607"/>
      <point x="717" y="648"/>
      <point x="674" y="664" type="curve"/>
      <point x="659" y="644" type="line"/>
      <point x="683" y="635"/>
      <point x="705" y="610"/>
      <point x="705" y="576" type="curve" smooth="yes"/>
      <point x="705" y="536"/>
      <point x="674" y="509"/>
      <point x="613" y="509" type="curve" smooth="yes"/>
      <point x="421" y="509" type="line"/>
      <point x="421" y="434" type="line"/>
    </contour>
  </outline>
</glyph>
<glyph name="knNA" format="1">
  <advance width="619"/>
  <unicode hex="0CA8"/>
  <outline>
    <contour>
      <point x="174" y="-75"/>
      <point x="204" y="-66"/>
      <point x="204" y="-43" type="curve" smooth="yes"/>
      <point x="204" y="-20"/>
      <point x="188" y="1"/>
      <point x="163" y="10" type="curve" smooth="yes"/>
      <point x="112" y="27"/>
      <point x="80" y="73"/>
      <point x="80" y="112" type="curve" smooth="yes"/>
      <point x="80" y="171"/>
      <point x="113" y="212"/>
      <point x="169" y="212" type="curve" smooth="yes"/>
      <point x="327" y="212"/>
      <point x="257" y="-14"/>
      <point x="411" y="-14" type="curve" smooth="yes"/>
      <point x="491" y="-14"/>
      <point x="554" y="72"/>
      <point x="554" y="176" type="curve" smooth="yes"/>
      <point x="554" y="295"/>
      <point x="478" y="399"/>
      <point x="343" y="437" type="curve"/>
      <point x="217" y="438" type="line"/>
      <point x="259" y="432" type="line"/>
      <point x="405" y="398"/>
      <point x="506" y="311"/>
      <point x="506" y="188" type="curve" smooth="yes"/>
      <point x="506" y="116"/>
      <point x="463" y="71"/>
      <point x="411" y="71" type="curve" smooth="yes"/>
      <point x="277" y="71"/>
      <point x="317" y="294"/>
      <point x="170" y="294" type="curve" smooth="yes"/>
      <point x="104" y="294"/>
      <point x="45" y="224"/>
      <point x="45" y="140" type="curve" smooth="yes"/>
      <point x="45" y="54"/>
      <point x="85" y="-23"/>
      <point x="151" y="-61" type="curve" smooth="yes"/>
    </contour>
    <contour>
      <point x="400" y="434" type="line" smooth="yes"/>
      <point x="482" y="434"/>
      <point x="535" y="480"/>
      <point x="535" y="552" type="curve" smooth="yes"/>
      <point x="535" y="607"/>
      <point x="504" y="648"/>
      <point x="461" y="664" type="curve"/>
      <point x="446" y="644" type="line"/>
      <point x="470" y="635"/>
      <point x="492" y="610"/>
      <point x="492" y="576" type="curve" smooth="yes"/>
      <point x="492" y="537"/>
      <point x="461" y="509"/>
      <point x="400" y="509" type="curve" smooth="yes"/>
      <point x="45" y="509" type="line"/>
      <point x="45" y="434" type="line"/>
    </contour>
  </outline>
</glyph>
<glyph name="knMA" format="1">
  <advance width="1042"/>
  <unicode hex="0CAE"/>
  <outline>
    <contour>
      <point x="251" y="-14"/>
      <point x="321" y="43"/>
      <point x="344" y="126" type="curve"/>
      <point x="346" y="126" type="line"/>
      <point x="369" y="43"/>
      <point x="438" y="-14"/>
      <point x="503" y="-14" type="curve" smooth="yes"/>
      <point x="598" y="-14"/>
      <point x="636" y="84"/>
      <point x="636" y="171" type="curve" smooth="yes"/>
      <point x="636" y="360"/>
      <point x="493" y="474"/>
      <point x="357" y="474" type="curve"/>
      <point x="347" y="434" type="line"/>
      <point x="499" y="424"/>
      <point x="598" y="311"/>
      <point x="598" y="193" type="curve" smooth="yes"/>
      <point x="598" y="121"/>
      <point x="559" y="71"/>
      <point x="493" y="71" type="curve" smooth="yes"/>
      <point x="428" y="71"/>
      <point x="363" y="145"/>
      <point x="349" y="221" type="curve"/>
      <point x="340" y="221" type="line"/>
      <point x="326" y="145"/>
      <point x="261" y="71"/>
      <point x="186" y="71" type="curve" smooth="yes"/>
      <point x="135" y="71"/>
      <point x="100" y="104"/>
      <point x="100" y="156" type="curve" smooth="yes"/>
      <point x="100" y="201"/>
      <point x="129" y="227"/>
      <point x="166" y="227" type="curve" smooth="yes"/>
      <point x="196" y="227"/>
      <point x="221" y="217"/>
      <point x="232" y="193" type="curve"/>
      <point x="248" y="208" type="line"/>
      <point x="235" y="250"/>
      <point x="211" y="287"/>
      <point x="163" y="287" type="curve" smooth="yes"/>
      <point x="103" y="287"/>
      <point x="60" y="232"/>
      <point x="60" y="143" type="curve" smooth="yes"/>
      <point x="60" y="56"/>
      <point x="109" y="-14"/>
      <point x="183" y="-14" type="curve" smooth="yes"/>
    </contour>
    <contour>
      <point x="495" y="434" type="line" smooth="yes"/>
      <point x="576" y="434"/>
      <point x="630" y="480"/>
      <point x="630" y="552" type="curve" smooth="yes"/>
      <point x="630" y="607"/>
      <point x="599" y="648"/>
      <point x="556" y="664" type="curve"/>
      <point x="541" y="644" type="line"/>
      <point x="565" y="635"/>
      <point x="587" y="610"/>
      <point x="587" y="576" type="curve" smooth="yes"/>
      <point x="587" y="536"/>
      <point x="556" y="509"/>
      <point x="495" y="509" type="curve" smooth="yes"/>
      <point x="60" y="509" type="line"/>
      <point x="60" y="434" type="line"/>
    </contour>
    <contour>
      <point x="902" y="-14"/>
      <point x="982" y="95"/>
      <point x="982" y="242" type="curve" smooth="yes"/>
      <point x="982" y="415"/>
      <point x="886" y="513"/>
      <point x="815" y="513" type="curve" smooth="yes"/>
      <point x="784" y="513"/>
      <point x="767" y="493"/>
      <point x="767" y="470" type="curve" smooth="yes"/>
      <point x="767" y="451"/>
      <point x="779" y="435"/>
      <point x="795" y="430" type="curve" smooth="yes"/>
      <point x="818" y="423"/>
      <point x="839" y="428"/>
      <point x="863" y="420" type="curve" smooth="yes"/>
      <point x="900" y="407"/>
      <point x="947" y="344"/>
      <point x="947" y="255" type="curve" smooth="yes"/>
      <point x="947" y="137"/>
      <point x="877" y="71"/>
      <point x="789" y="71" type="curve" smooth="yes"/>
      <point x="710" y="71"/>
      <point x="645" y="132"/>
      <point x="610" y="235" type="curve"/>
      <point x="614" y="129" type="line"/>
      <point x="650" y="45"/>
      <point x="716" y="-14"/>
      <point x="789" y="-14" type="curve" smooth="yes"/>
    </contour>
  </outline>
</glyph>
<glyph name="knLA" format="1">
  <advance width="717"/>
  <unicode hex="0CB2"/>
  <outline>
    <contour>
      <point x="552" y="-13"/>
      <point x="657" y="116"/>
      <point x="657" y="283" type="curve" smooth="yes"/>
      <point x="657" y="416"/>
      <point x="572" y="514"/>
      <point x="508" y="514" type="curve" smooth="yes"/>
      <point x="473" y="514"/>
      <point x="453" y="494"/>
      <point x="453" y="471" type="curve" smooth="yes"/>
      <point x="453" y="452"/>
      <point x="465" y="436"/>
      <point x="481" y="431" type="curve" smooth="yes"/>
      <point x="504" y="424"/>
      <point x="525" y="429"/>
      <point x="549" y="421" type="curve" smooth="yes"/>
      <point x="586" y="408"/>
      <point x="622" y="365"/>
      <point x="622" y="293" type="curve" smooth="yes"/>
      <point x="622" y="157"/>
      <point x="522" y="72"/>
      <point x="371" y="71" type="curve" smooth="yes"/>
      <point x="200" y="70"/>
      <point x="100" y="171"/>
      <point x="100" y="294" type="curve" smooth="yes"/>
      <point x="100" y="387"/>
      <point x="142" y="454"/>
      <point x="235" y="454" type="curve" smooth="yes"/>
      <point x="273" y="454"/>
      <point x="307" y="440"/>
      <point x="307" y="401" type="curve" smooth="yes"/>
      <point x="307" y="365"/>
      <point x="279" y="344"/>
      <point x="232" y="344" type="curve" smooth="yes"/>
      <point x="190" y="344"/>
      <point x="159" y="365"/>
      <point x="159" y="408" type="curve" smooth="yes"/>
      <point x="159" y="419"/>
      <point x="163" y="440"/>
      <point x="166" y="450" type="curve"/>
      <point x="177" y="475"/>
      <point x="172" y="501"/>
      <point x="157" y="497" type="curve"/>
      <point x="135" y="429" type="line"/>
      <point x="132" y="407"/>
      <point x="131" y="394"/>
      <point x="131" y="381" type="curve" smooth="yes"/>
      <point x="131" y="308"/>
      <point x="174" y="273"/>
      <point x="232" y="273" type="curve" smooth="yes"/>
      <point x="295" y="273"/>
      <point x="337" y="325"/>
      <point x="337" y="391" type="curve" smooth="yes"/>
      <point x="337" y="457"/>
      <point x="301" y="519"/>
      <point x="230" y="519" type="curve" smooth="yes"/>
      <point x="128" y="519"/>
      <point x="60" y="414"/>
      <point x="60" y="283" type="curve" smooth="yes"/>
      <point x="60" y="104"/>
      <point x="180" y="-14"/>
      <point x="371" y="-14" type="curve" smooth="yes"/>
    </contour>
  </outline>
</glyph>
<glyph name="knmAA" format="1">
  <advance width="445"/>
  <unicode hex="0CBE"/>
  <outline>
    <contour>
      <point x="311" y="-13"/>
      <point x="385" y="93"/>
      <point x="385" y="239" type="curve" smooth="yes"/>
      <point x="385" y="390"/>
      <point x="315" y="509"/>
      <point x="77" y="509" type="curve" smooth="yes"/>
      <point x="-200" y="509" type="line"/>
      <point x="-200" y="434" type="line"/>
      <point x="86" y="434" type="line" smooth="yes"/>
      <point x="280" y="434"/>
      <point x="350" y="346"/>
      <point x="350" y="236" type="curve" smooth="yes"/>
      <point x="350" y="130"/>
      <point x="288" y="69"/>
      <point x="198" y="69" type="curve" smooth="yes"/>
      <point x="125" y="69"/>
      <point x="81" y="112"/>
      <point x="80" y="170" type="curve" smooth="yes"/>
      <point x="79" y="212"/>
      <point x="101" y="238"/>
      <point x="113" y="238" type="curve" smooth="yes"/>
      <point x="118" y="238"/>
      <point x="120" y="234"/>
      <point x="119" y="228" type="curve"/>
      <point x="120" y="192"/>
      <point x="141" y="166"/>
      <point x="174" y="166" type="curve" smooth="yes"/>
      <point x="209" y="166"/>
      <point x="235" y="195"/>
      <point x="234" y="231" type="curve"/>
      <point x="235" y="263"/>
      <point x="210" y="300"/>
      <point x="155" y="300" type="curve" smooth="yes"/>
      <point x="83" y="300"/>
      <point x="43" y="236"/>
      <point x="42" y="158" type="curve" smooth="yes"/>
      <point x="43" y="59"/>
      <point x="103" y="-13"/>
      <point x="199" y="-13" type="curve" smooth="yes"/>
    </contour>
  </outline>
</glyph>
<glyph name="knmII" format="1">
  <advance width="535"/>
  <unicode hex="0CC0"/>
  <outline>
    <contour>
      <point x="568" y="-13" type="line"/>
      <point x="464" y="72"/>
      <point x="405" y="164"/>
      <point x="405" y="243" type="curve" smooth="yes"/>
      <point x="405" y="349"/>
      <point x="449" y="411"/>
      <point x="519" y="411" type="curve" smooth="yes"/>
      <point x="568" y="411"/>
      <point x="590" y="389"/>
      <point x="590" y="353" type="curve" smooth="yes"/>
      <point x="590" y="320"/>
      <point x="567" y="296"/>
      <point x="526" y="296" type="curve" smooth="yes"/>
      <point x="493" y="296"/>
      <point x="466" y="319"/>
      <point x="466" y="360" type="curve" smooth="yes"/>
      <point x="466" y="394"/>
      <point x="469" y="411"/>
      <point x="485" y="441" type="curve"/>
      <point x="444" y="419" type="line"/>
      <point x="438" y="391"/>
      <point x="436" y="374"/>
      <point x="436" y="338" type="curve" smooth="yes"/>
      <point x="436" y="280"/>
      <point x="472" y="234"/>
      <point x="526" y="234" type="curve" smooth="yes"/>
      <point x="577" y="234"/>
      <point x="620" y="279"/>
      <point x="620" y="352" type="curve" smooth="yes"/>
      <point x="620" y="425"/>
      <point x="585" y="484"/>
      <point x="515" y="484" type="curve" smooth="yes"/>
      <point x="424" y="484"/>
      <point x="370" y="373"/>
      <point x="370" y="247" type="curve" smooth="yes"/>
      <point x="370" y="150"/>
      <point x="403" y="61"/>
      <point x="465" y="-13" type="curve"/>
    </contour>
    <contour>
      <point x="181" y="334"/>
      <point x="233" y="400"/>
      <point x="233" y="494" type="curve" smooth="yes"/>
      <point x="233" y="581"/>
      <point x="172" y="674"/>
      <point x="88" y="674" type="curve" smooth="yes"/>
      <point x="29" y="674"/>
      <point x="-7" y="629"/>
      <point x="-7" y="560" type="curve" smooth="yes"/>
      <point x="-7" y="499"/>
      <point x="33" y="450"/>
      <point x="89" y="451" type="curve" smooth="yes"/>
      <point x="147" y="452"/>
      <point x="177" y="505"/>
      <point x="177" y="563" type="curve" smooth="yes"/>
      <point x="177" y="594"/>
      <point x="170" y="612"/>
      <point x="159" y="627" type="curve"/>
      <point x="131" y="631" type="line"/>
      <point x="145" y="617"/>
      <point x="149" y="601"/>
      <point x="149" y="578" type="curve" smooth="yes"/>
      <point x="149" y="548"/>
      <point x="130" y="511"/>
      <point x="83" y="511" type="curve" smooth="yes"/>
      <point x="47" y="511"/>
      <point x="26" y="530"/>
      <point x="26" y="560" type="curve" smooth="yes"/>
      <point x="26" y="583"/>
      <point x="46" y="608"/>
      <point x="90" y="608" type="curve" smooth="yes"/>
      <point x="156" y="608"/>
      <point x="201" y="549"/>
      <point x="201" y="498" type="curve" smooth="yes"/>
      <point x="201" y="431"/>
      <point x="151" y="389"/>
      <point x="30" y="375" type="curve"/>
      <point x="59" y="314" type="line"/>
    </contour>
  </outline>
</glyph>
<glyph name="knmE" format="1">
  <advance width="0"/>
  <unicode hex="0CC6"/>
  <outline>
    <contour>
      <point x="-121" y="434"/>
      <point x="-67" y="480"/>
      <point x="-67" y="553" type="curve" smooth="yes"/>
      <point x="-67" y="651"/>
      <point x="-145" y="685"/>
      <point x="-202" y="685" type="curve" smooth="yes"/>
      <point x="-257" y="685"/>
      <point x="-285" y="657"/>
      <point x="-285" y="625" type="curve" smooth="yes"/>
      <point x="-285" y="592"/>
      <point x="-262" y="571"/>
      <point x="-228" y="571" type="curve" smooth="yes"/>
      <point x="-194" y="571"/>
      <point x="-173" y="597"/>
      <point x="-173" y="633" type="curve" smooth="yes"/>
      <point x="-173" y="639"/>
      <point x="-171" y="643"/>
      <point x="-167" y="643" type="curve" smooth="yes"/>
      <point x="-154" y="643"/>
      <point x="-110" y="629"/>
      <point x="-110" y="577" type="curve"/>
      <point x="-110" y="530"/>
      <point x="-150" y="509"/>
      <point x="-201" y="509" type="curve"/>
      <point x="-202" y="434" type="line"/>
    </contour>
  </outline>
</glyph>
<glyph name="knmAU" format="1">
  <advance width="429"/>
  <unicode hex="0CCC"/>
  <outline>
    <contour>
      <point x="280" y="186"/>
      <point x="354" y="292"/>
      <point x="354" y="438" type="curve" smooth="yes"/>
      <point x="354" y="601"/>
      <point x="265" y="709"/>
      <point x="45" y="709" type="curve" smooth="yes"/>
      <point x="-300" y="709" type="line"/>
      <point x="-300" y="634" type="line"/>
      <point x="66" y="634" type="line" smooth="yes"/>
      <point x="221" y="634"/>
      <point x="319" y="555"/>
      <point x="319" y="435" type="curve" smooth="yes"/>
      <point x="319" y="329"/>
      <point x="257" y="268"/>
      <point x="167" y="268" type="curve" smooth="yes"/>
      <point x="94" y="268"/>
      <point x="50" y="311"/>
      <point x="49" y="369" type="curve" smooth="yes"/>
      <point x="48" y="411"/>
      <point x="70" y="437"/>
      <point x="82" y="437" type="curve" smooth="yes"/>
      <point x="87" y="437"/>
      <point x="89" y="433"/>
      <point x="88" y="427" type="curve"/>
      <point x="89" y="391"/>
      <point x="110" y="365"/>
      <point x="143" y="365" type="curve" smooth="yes"/>
      <point x="178" y="365"/>
      <point x="204" y="394"/>
      <point x="203" y="430" type="curve"/>
      <point x="204" y="462"/>
      <point x="179" y="499"/>
      <point x="124" y="499" type="curve" smooth="yes"/>
      <point x="52" y="499"/>
      <point x="12" y="435"/>
      <point x="11" y="357" type="curve" smooth="yes"/>
      <point x="12" y="258"/>
      <point x="72" y="186"/>
      <point x="168" y="186" type="curve" smooth="yes"/>
    </contour>
    <contour>
      <point x="-199" y="434" type="line" smooth="yes"/>
      <point x="-118" y="434"/>
      <point x="-64" y="480"/>
      <point x="-64" y="552" type="curve" smooth="yes"/>
      <point x="-64" y="607"/>
      <point x="-95" y="648"/>
      <point x="-138" y="664" type="curve"/>
      <point x="-153" y="644" type="line"/>
      <point x="-129" y="635"/>
      <point x="-107" y="610"/>
      <point x="-107" y="576" type="curve" smooth="yes"/>
      <point x="-107" y="536"/>
      <point x="-138" y="509"/>
      <point x="-199" y="509" type="curve" smooth="yes"/>
      <point x="-220" y="509" type="line"/>
      <point x="-220" y="434" type="line"/>
    </contour>
  </outline>
</glyph>
<glyph name="knvRR" format="1">
  <advance width="1483"/>
  <unicode hex="0CE0"/>
  <outline>
    <contour>
      <point x="963" y="-14"/>
      <point x="996" y="73"/>
      <point x="996" y="231" type="curve" smooth="yes"/>
      <point x="996" y="371"/>
      <point x="1072" y="441"/>
      <point x="1179" y="441" type="curve" smooth="yes"/>
      <point x="1294" y="441"/>
      <point x="1393" y="363"/>
      <point x="1393" y="235" type="curve" smooth="yes"/>
      <point x="1393" y="129"/>
      <point x="1331" y="68"/>
      <point x="1241" y="68" type="curve" smooth="yes"/>
      <point x="1168" y="68"/>
      <point x="1124" y="111"/>
      <point x="1123" y="169" type="curve" smooth="yes"/>
      <point x="1122" y="211"/>
      <point x="1144" y="237"/>
      <point x="1156" y="237" type="curve" smooth="yes"/>
      <point x="1161" y="237"/>
      <point x="1163" y="233"/>
      <point x="1162" y="227" type="curve"/>
      <point x="1163" y="191"/>
      <point x="1184" y="165"/>
      <point x="1217" y="165" type="curve" smooth="yes"/>
      <point x="1252" y="165"/>
      <point x="1278" y="194"/>
      <point x="1277" y="230" type="curve"/>
      <point x="1278" y="262"/>
      <point x="1253" y="299"/>
      <point x="1198" y="299" type="curve" smooth="yes"/>
      <point x="1126" y="299"/>
      <point x="1086" y="235"/>
      <point x="1085" y="157" type="curve" smooth="yes"/>
      <point x="1086" y="58"/>
      <point x="1146" y="-14"/>
      <point x="1242" y="-14" type="curve" smooth="yes"/>
      <point x="1354" y="-14"/>
      <point x="1428" y="92"/>
      <point x="1428" y="238" type="curve" smooth="yes"/>
      <point x="1428" y="402"/>
      <point x="1318" y="519"/>
      <point x="1170" y="519" type="curve" smooth="yes"/>
      <point x="1048" y="519"/>
      <point x="959" y="423"/>
      <point x="959" y="248" type="curve" smooth="yes"/>
      <point x="959" y="116"/>
      <point x="923" y="71"/>
      <point x="850" y="71" type="curve" smooth="yes"/>
      <point x="769" y="71"/>
      <point x="719" y="145"/>
      <point x="690" y="222" type="curve"/>
      <point x="673" y="186" type="line"/>
      <point x="697" y="88"/>
      <point x="775" y="-14"/>
      <point x="853" y="-14" type="curve" smooth="yes"/>
    </contour>
    <contour>
      <point x="308" y="-15"/>
      <point x="388" y="120"/>
      <point x="388" y="251" type="curve" smooth="yes"/>
      <point x="388" y="382"/>
      <point x="310" y="519"/>
      <point x="158" y="519" type="curve" smooth="yes"/>
      <point x="96" y="519"/>
      <point x="43" y="471"/>
      <point x="43" y="405" type="curve" smooth="yes"/>
      <point x="43" y="339"/>
      <point x="102" y="289"/>
      <point x="155" y="289" type="curve" smooth="yes"/>
      <point x="213" y="289"/>
      <point x="257" y="332"/>
      <point x="257" y="405" type="curve" smooth="yes"/>
      <point x="257" y="418"/>
      <point x="256" y="431"/>
      <point x="253" y="453" type="curve"/>
      <point x="222" y="470" type="line"/>
      <point x="225" y="460"/>
      <point x="229" y="439"/>
      <point x="229" y="428" type="curve" smooth="yes"/>
      <point x="229" y="382"/>
      <point x="199" y="355"/>
      <point x="157" y="355" type="curve" smooth="yes"/>
      <point x="111" y="355"/>
      <point x="80" y="377"/>
      <point x="80" y="405" type="curve" smooth="yes"/>
      <point x="80" y="432"/>
      <point x="109" y="449"/>
      <point x="153" y="449" type="curve" smooth="yes"/>
      <point x="266" y="449"/>
      <point x="348" y="365"/>
      <point x="348" y="249" type="curve" smooth="yes"/>
      <point x="348" y="149"/>
      <point x="281" y="57"/>
      <point x="158" y="57" type="curve" smooth="yes"/>
      <point x="108" y="57"/>
      <point x="78" y="83"/>
      <point x="78" y="112" type="curve" smooth="yes"/>
      <point x="78" y="140"/>
      <point x="107" y="161"/>
      <point x="154" y="161" type="curve" smooth="yes"/>
      <point x="196" y="161"/>
      <point x="226" y="122"/>
      <point x="226" y="76" type="curve" smooth="yes"/>
      <point x="226" y="65"/>
      <point x="222" y="44"/>
      <point x="219" y="34" type="curve"/>
      <point x="250" y="54" type="line"/>
      <point x="253" y="76"/>
      <point x="254" y="89"/>
      <point x="254" y="102" type="curve" smooth="yes"/>
      <point x="254" y="175"/>
      <point x="210" y="227"/>
      <point x="152" y="227" type="curve" smooth="yes"/>
      <point x="89" y="227"/>
      <point x="40" y="176"/>
      <point x="40" y="110" type="curve" smooth="yes"/>
      <point x="40" y="42"/>
      <point x="96" y="-15"/>
      <point x="165" y="-15" type="curve" smooth="yes"/>
    </contour>
    <contour>
      <point x="636" y="-14"/>
      <point x="716" y="95"/>
      <point x="716" y="242" type="curve" smooth="yes"/>
      <point x="716" y="415"/>
      <point x="620" y="509"/>
      <point x="549" y="509" type="curve" smooth="yes"/>
      <point x="518" y="509"/>
      <point x="501" y="493"/>
      <point x="501" y="470" type="curve" smooth="yes"/>
      <point x="501" y="464"/>
      <point x="530" y="453"/>
      <point x="569" y="434" type="curve" smooth="yes"/>
      <point x="616" y="411"/>
      <point x="681" y="344"/>
      <point x="681" y="255" type="curve" smooth="yes"/>
      <point x="681" y="137"/>
      <point x="611" y="71"/>
      <point x="523" y="71" type="curve" smooth="yes"/>
      <point x="454" y="71"/>
      <point x="401" y="105"/>
      <point x="364" y="207" type="curve"/>
      <point x="344" y="188" type="line"/>
      <point x="362" y="61"/>
      <point x="437" y="-14"/>
      <point x="523" y="-14" type="curve" smooth="yes"/>
    </contour>
    <contour>
      <point x="613" y="434" type="line" smooth="yes"/>
      <point x="694" y="434"/>
      <point x="748" y="480"/>
      <point x="748" y="552" type="curve" smooth="yes"/>
      <point x="748" y="607"/>
      <point x="717" y="648"/>
      <point x="674" y="664" type="curve"/>
      <point x="659" y="644" type="line"/>
      <point x="683" y="635"/>
      <point x="705" y="610"/>
      <point x="705" y="576" type="curve" smooth="yes"/>
      <point x="705" y="536"/>
      <point x="674" y="509"/>
      <point x="613" y="509" type="curve" smooth="yes"/>
      <point x="421" y="509" type="line"/>
      <point x="421" y="434" type="line"/>
    </contour>
  </outline>
</glyph>
<glyph name="knThree" format="1">
  <advance width="598"/>
  <unicode hex="0CE9"/>
  <outline>
    <contour>
      <point x="295" y="-14"/>
      <point x="376" y="124"/>
      <point x="376" y="278" type="curve" smooth="yes"/>
      <point x="376" y="423"/>
      <point x="298" y="519"/>
      <point x="199" y="519" type="curve" smooth="yes"/>
      <point x="122" y="519"/>
      <point x="86" y="462"/>
      <point x="86" y="394" type="curve" smooth="yes"/>
      <point x="86" y="319"/>
      <point x="122" y="274"/>
      <point x="180" y="274" type="curve" smooth="yes"/>
      <point x="224" y="274"/>
      <point x="264" y="315"/>
      <point x="271" y="357" type="curve"/>
      <point x="255" y="377" type="line"/>
      <point x="242" y="362"/>
      <point x="218" y="354"/>
      <point x="185" y="354" type="curve" smooth="yes"/>
      <point x="148" y="354"/>
      <point x="123" y="369"/>
      <point x="123" y="396" type="curve" smooth="yes"/>
      <point x="123" y="423"/>
      <point x="145" y="439"/>
      <point x="194" y="439" type="curve" smooth="yes"/>
      <point x="271" y="439"/>
      <point x="336" y="380"/>
      <point x="336" y="278" type="curve" smooth="yes"/>
      <point x="336" y="134"/>
      <point x="259" y="71"/>
      <point x="179" y="71" type="curve" smooth="yes"/>
      <point x="126" y="71"/>
      <point x="94" y="91"/>
      <point x="94" y="127" type="curve" smooth="yes"/>
      <point x="94" y="158"/>
      <point x="121" y="177"/>
      <point x="162" y="177" type="curve" smooth="yes"/>
      <point x="311" y="177"/>
      <point x="314" y="-14"/>
      <point x="469" y="-14" type="curve" smooth="yes"/>
      <point x="540" y="-14"/>
      <point x="573" y="47"/>
      <point x="578" y="95" type="curve"/>
      <point x="562" y="109" type="line"/>
      <point x="535" y="77"/>
      <point x="510" y="71"/>
      <point x="474" y="71" type="curve" smooth="yes"/>
      <point x="364" y="71"/>
      <point x="293" y="214"/>
      <point x="165" y="214" type="curve" smooth="yes"/>
      <point x="93" y="214"/>
      <point x="50" y="169"/>
      <point x="50" y="107" type="curve" smooth="yes"/>
      <point x="50" y="42"/>
      <point x="90" y="-14"/>
      <point x="180" y="-14" type="curve" smooth="yes"/>
    </contour>
  </outline>
</glyph>
<glyph name="knFour" format="1">
  <advance width="637"/>
  <unicode hex="0CEA"/>
  <outline>
    <contour>
      <point x="408" y="-14"/>
      <point x="452" y="34"/>
      <point x="452" y="97" type="curve" smooth="yes"/>
      <point x="452" y="203"/>
      <point x="354" y="224"/>
      <point x="257" y="245" type="curve" smooth="yes"/>
      <point x="173" y="263"/>
      <point x="90" y="281"/>
      <point x="90" y="363" type="curve" smooth="yes"/>
      <point x="90" y="422"/>
      <point x="156" y="454"/>
      <point x="224" y="454" type="curve" smooth="yes"/>
      <point x="275" y="454"/>
      <point x="290" y="430"/>
      <point x="290" y="413" type="curve" smooth="yes"/>
      <point x="290" y="390"/>
      <point x="270" y="373"/>
      <point x="231" y="373" type="curve" smooth="yes"/>
      <point x="188" y="373"/>
      <point x="168" y="394"/>
      <point x="168" y="427" type="curve" smooth="yes"/>
      <point x="168" y="450"/>
      <point x="173" y="471"/>
      <point x="180" y="477" type="curve"/>
      <point x="156" y="482" type="line"/>
      <point x="144" y="460"/>
      <point x="138" y="436"/>
      <point x="138" y="410" type="curve" smooth="yes"/>
      <point x="138" y="350"/>
      <point x="174" y="310"/>
      <point x="230" y="310" type="curve" smooth="yes"/>
      <point x="296" y="310"/>
      <point x="320" y="363"/>
      <point x="320" y="414" type="curve" smooth="yes"/>
      <point x="320" y="467"/>
      <point x="287" y="519"/>
      <point x="217" y="519" type="curve" smooth="yes"/>
      <point x="120" y="519"/>
      <point x="55" y="460"/>
      <point x="55" y="363" type="curve" smooth="yes"/>
      <point x="55" y="205"/>
      <point x="193" y="183"/>
      <point x="298" y="166" type="curve" smooth="yes"/>
      <point x="363" y="155"/>
      <point x="416" y="146"/>
      <point x="416" y="109" type="curve" smooth="yes"/>
      <point x="416" y="83"/>
      <point x="383" y="71"/>
      <point x="346" y="71" type="curve" smooth="yes"/>
      <point x="303" y="71"/>
      <point x="271" y="85"/>
      <point x="271" y="112" type="curve" smooth="yes"/>
      <point x="271" y="203"/>
      <point x="589" y="186"/>
      <point x="589" y="363" type="curve" smooth="yes"/>
      <point x="589" y="450"/>
      <point x="528" y="513"/>
      <point x="457" y="513" type="curve" smooth="yes"/>
      <point x="426" y="513"/>
      <point x="409" y="493"/>
      <point x="409" y="470" type="curve" smooth="yes"/>
      <point x="409" y="451"/>
      <point x="421" y="435"/>
      <point x="437" y="430" type="curve" smooth="yes"/>
      <point x="448" y="427"/>
      <point x="458" y="426"/>
      <point x="469" y="425" type="curve" smooth="yes"/>
      <point x="480" y="425"/>
      <point x="492" y="424"/>
      <point x="505" y="420" type="curve" smooth="yes"/>
      <point x="535" y="410"/>
      <point x="552" y="387"/>
      <point x="552" y="355" type="curve" smooth="yes"/>
      <point x="552" y="285"/>
      <point x="474" y="257"/>
      <point x="395" y="229" type="curve" smooth="yes"/>
      <point x="311" y="199"/>
      <point x="225" y="168"/>
      <point x="225" y="86" type="curve" smooth="yes"/>
      <point x="225" y="28"/>
      <point x="270" y="-14"/>
      <point x="341" y="-14" type="curve" smooth="yes"/>
    </contour>
  </outline>
</glyph>
<glyph name="knNine" format="1">
  <advance width="555"/>
  <unicode hex="0CEF"/>
  <outline>
    <contour>
      <point x="352" y="-14"/>
      <point x="370" y="7"/>
      <point x="370" y="27" type="curve" smooth="yes"/>
      <point x="370" y="44"/>
      <point x="361" y="56"/>
      <point x="347" y="63" type="curve" smooth="yes"/>
      <point x="332" y="71"/>
      <point x="309" y="66"/>
      <point x="277" y="73" type="curve" smooth="yes"/>
      <point x="215" y="86"/>
      <point x="173" y="127"/>
      <point x="173" y="195" type="curve" smooth="yes"/>
      <point x="173" y="271"/>
      <point x="218" y="318"/>
      <point x="279" y="318" type="curve" smooth="yes"/>
      <point x="323" y="318"/>
      <point x="344" y="293"/>
      <point x="344" y="270" type="curve" smooth="yes"/>
      <point x="344" y="244"/>
      <point x="316" y="221"/>
      <point x="252" y="221" type="curve" smooth="yes"/>
      <point x="162" y="221"/>
      <point x="91" y="266"/>
      <point x="91" y="335" type="curve" smooth="yes"/>
      <point x="91" y="395"/>
      <point x="142" y="434"/>
      <point x="225" y="434" type="curve" smooth="yes"/>
      <point x="492" y="434" type="line"/>
      <point x="492" y="508" type="line"/>
      <point x="221" y="508" type="line" smooth="yes"/>
      <point x="122" y="508"/>
      <point x="55" y="446"/>
      <point x="55" y="342" type="curve" smooth="yes"/>
      <point x="55" y="239"/>
      <point x="153" y="151"/>
      <point x="256" y="151" type="curve" smooth="yes"/>
      <point x="343" y="151"/>
      <point x="380" y="201"/>
      <point x="380" y="257" type="curve" smooth="yes"/>
      <point x="380" y="308"/>
      <point x="344" y="350"/>
      <point x="278" y="350" type="curve" smooth="yes"/>
      <point x="202" y="350"/>
      <point x="138" y="291"/>
      <point x="138" y="185" type="curve" smooth="yes"/>
      <point x="138" y="68"/>
      <point x="230" y="-14"/>
      <point x="316" y="-14" type="curve" smooth="yes"/>
    </contour>
  </outline>
</glyph>
<glyph name="second" format="1">
  <advance width="390"/>
  <unicode hex="2033"/>
  <outline>
    <contour>
      <point x="273" y="444"/>
      <point x="279" y="452"/>
      <point x="286" y="469" type="curve" smooth="yes"/>
      <point x="317" y="540"/>
      <point x="333" y="598"/>
      <point x="333" y="644" type="curve" smooth="yes"/>
      <point x="333" y="665"/>
      <point x="328" y="676"/>
      <point x="319" y="676" type="curve" smooth="yes"/>
      <point x="296" y="676"/>
      <point x="257" y="644"/>
      <point x="257" y="620" type="curve" smooth="yes"/>
      <point x="257" y="614" type="line"/>
      <point x="261" y="524" type="line"/>
      <point x="261" y="500"/>
      <point x="261" y="481"/>
      <point x="261" y="466" type="curve"/>
      <point x="260" y="451"/>
      <point x="262" y="444"/>
      <point x="267" y="444" type="curve" smooth="yes"/>
    </contour>
    <contour>
      <point x="78" y="444"/>
      <point x="84" y="452"/>
      <point x="91" y="469" type="curve" smooth="yes"/>
      <point x="122" y="540"/>
      <point x="138" y="598"/>
      <point x="138" y="644" type="curve" smooth="yes"/>
      <point x="138" y="665"/>
      <point x="133" y="676"/>
      <point x="124" y="676" type="curve" smooth="yes"/>
      <point x="101" y="676"/>
      <point x="62" y="644"/>
      <point x="62" y="620" type="curve" smooth="yes"/>
      <point x="62" y="614" type="line"/>
      <point x="66" y="524" type="line"/>
      <point x="66" y="500"/>
      <point x="66" y="481"/>
      <point x="66" y="466" type="curve"/>
      <point x="65" y="451"/>
      <point x="67" y="444"/>
      <point x="72" y="444" type="curve" smooth="yes"/>
    </contour>
  </outline>
</glyph>
<glyph name="asciitilde.sinf" format="1">
  <advance width="500"/>
  <outline>
    <contour>
      <point x="366" y="116"/>
      <point x="430" y="181"/>
      <point x="450" y="218" type="curve"/>
      <point x="451" y="219"/>
      <point x="451" y="221"/>
      <point x="451" y="223" type="curve" smooth="yes"/>
      <point x="451" y="227"/>
      <point x="444" y="238"/>
      <point x="441" y="238" type="curve" smooth="yes"/>
      <point x="440" y="238"/>
      <point x="438" y="237"/>
      <point x="437" y="236" type="curve"/>
      <point x="421" y="215"/>
      <point x="367" y="189"/>
      <point x="330" y="189" type="curve" smooth="yes"/>
      <point x="311" y="189"/>
      <point x="284" y="197"/>
      <point x="249" y="213" type="curve" smooth="yes"/>
      <point x="214" y="229"/>
      <point x="188" y="237"/>
      <point x="173" y="237" type="curve" smooth="yes"/>
      <point x="142" y="237"/>
      <point x="50" y="170"/>
      <point x="50" y="133" type="curve" smooth="yes"/>
      <point x="50" y="129"/>
      <point x="58" y="110"/>
      <point x="65" y="117" type="curve"/>
      <point x="81" y="136"/>
      <point x="134" y="164"/>
      <point x="164" y="164" type="curve" smooth="yes"/>
      <point x="179" y="164"/>
      <point x="205" y="156"/>
      <point x="244" y="140" type="curve" smooth="yes"/>
      <point x="283" y="124"/>
      <point x="311" y="116"/>
      <point x="330" y="116" type="curve" smooth="yes"/>
    </contour>
  </outline>
</glyph>
<glyph name="drop" format="1">
  <advance width="620"/>
  <outline>
    <contour>
      <point x="403" y="-202"/>
      <point x="443" y="-186"/>
      <point x="443" y="-133" type="curve" smooth="yes"/>
      <point x="443" y="-92"/>
      <point x="401" y="-36"/>
      <point x="388" y="44" type="curve"/>
      <point x="370" y="44" type="line"/>
      <point x="358" y="-36"/>
      <point x="315" y="-92"/>
      <point x="315" y="-133" type="curve" smooth="yes"/>
      <point x="315" y="-182"/>
      <point x="353" y="-202"/>
      <point x="379" y="-202" type="curve"/>
    </contour>
  </outline>
</glyph>
<glyph name="knCA.base" format="1">
  <advance width="711"/>
  <outline>
    <contour>
      <point x="276" y="-14"/>
      <point x="344" y="43"/>
      <point x="367" y="126" type="curve"/>
      <point x="369" y="126" type="line"/>
      <point x="392" y="43"/>
      <point x="460" y="-14"/>
      <point x="528" y="-14" type="curve" smooth="yes"/>
      <point x="594" y="-14"/>
      <point x="655" y="38"/>
      <point x="655" y="125" type="curve" smooth="yes"/>
      <point x="655" y="195"/>
      <point x="609" y="311"/>
      <point x="525" y="327" type="curve"/>
      <point x="506" y="310" type="line"/>
      <point x="566" y="287"/>
      <point x="607" y="221"/>
      <point x="607" y="154" type="curve" smooth="yes"/>
      <point x="607" y="116"/>
      <point x="582" y="71"/>
      <point x="524" y="71" type="curve" smooth="yes"/>
      <point x="451" y="71"/>
      <point x="385" y="146"/>
      <point x="372" y="221" type="curve"/>
      <point x="363" y="221" type="line"/>
      <point x="349" y="145"/>
      <point x="284" y="71"/>
      <point x="211" y="71" type="curve" smooth="yes"/>
      <point x="158" y="71"/>
      <point x="131" y="114"/>
      <point x="131" y="156" type="curve" smooth="yes"/>
      <point x="131" y="187"/>
      <point x="156" y="223"/>
      <point x="189" y="257" type="curve" smooth="yes"/>
      <point x="229" y="298"/>
      <point x="278" y="349"/>
      <point x="278" y="399" type="curve" smooth="yes"/>
      <point x="278" y="465"/>
      <point x="230" y="519"/>
      <point x="154" y="519" type="curve" smooth="yes"/>
      <point x="79" y="519"/>
      <point x="40" y="465"/>
      <point x="40" y="413" type="curve" smooth="yes"/>
      <point x="40" y="381"/>
      <point x="48" y="352"/>
      <point x="69" y="330" type="curve"/>
      <point x="89" y="345" type="line"/>
      <point x="82" y="360"/>
      <point x="79" y="372"/>
      <point x="79" y="383" type="curve" smooth="yes"/>
      <point x="79" y="421"/>
      <point x="102" y="452"/>
      <point x="154" y="452" type="curve" smooth="yes"/>
      <point x="191" y="452"/>
      <point x="225" y="427"/>
      <point x="225" y="385" type="curve" smooth="yes"/>
      <point x="225" y="344"/>
      <point x="194" y="311"/>
      <point x="162" y="278" type="curve" smooth="yes"/>
      <point x="123" y="238"/>
      <point x="80" y="193"/>
      <point x="80" y="125" type="curve" smooth="yes"/>
      <point x="80" y="38"/>
      <point x="141" y="-14"/>
      <point x="208" y="-14" type="curve" smooth="yes"/>
    </contour>
    <contour>
      <point x="666" y="294" type="line"/>
      <point x="666" y="365" type="line"/>
      <point x="390" y="365" type="line"/>
      <point x="390" y="294" type="line"/>
    </contour>
    <contour>
      <point x="542" y="434" type="line"/>
      <point x="542" y="509" type="line"/>
      <point x="390" y="509" type="line"/>
      <point x="390" y="434" type="line"/>
    </contour>
    <contour>
      <point x="566" y="331"/>
      <point x="584" y="363"/>
      <point x="584" y="396" type="curve" smooth="yes"/>
      <point x="584" y="429"/>
      <point x="557" y="462"/>
      <point x="525" y="479" type="curve"/>
      <point x="510" y="448" type="line"/>
      <point x="537" y="437"/>
      <point x="550" y="416"/>
      <point x="550" y="395" type="curve" smooth="yes"/>
      <point x="550" y="374"/>
      <point x="537" y="354"/>
      <point x="510" y="342" type="curve"/>
      <point x="525" y="313" type="line"/>
    </contour>
  </outline>
</glyph>
<glyph name="knCHAc2" format="1">
  <advance width="65"/>
  <outline>
    <contour>
      <point x="-46" y="-564"/>
      <point x="-31" y="-553"/>
      <point x="-31" y="-528" type="curve" smooth="yes"/>
      <point x="-31" y="-499"/>
      <point x="-47" y="-493"/>
      <point x="-56" y="-416" type="curve"/>
      <point x="-66" y="-416" type="line"/>
      <point x="-75" y="-493"/>
      <point x="-95" y="-499"/>
      <point x="-95" y="-528" type="curve" smooth="yes"/>
      <point x="-95" y="-549"/>
      <point x="-79" y="-564"/>
      <point x="-62" y="-564" type="curve" smooth="yes"/>
    </contour>
    <contour>
      <point x="122" y="-431"/>
      <point x="144" y="-362"/>
      <point x="144" y="-265" type="curve" smooth="yes"/>
      <point x="144" y="-87"/>
      <point x="52" y="33"/>
      <point x="15" y="33" type="curve" smooth="yes"/>
      <point x="3" y="33"/>
      <point x="-8" y="25"/>
      <point x="-8" y="12" type="curve" smooth="yes"/>
      <point x="-8" y="-1"/>
      <point x="-1" y="-6"/>
      <point x="10" y="-16" type="curve" smooth="yes"/>
      <point x="28" y="-30"/>
      <point x="116" y="-121"/>
      <point x="116" y="-262" type="curve" smooth="yes"/>
      <point x="116" y="-330"/>
      <point x="92" y="-377"/>
      <point x="39" y="-377" type="curve"/>
      <point x="-10" y="-377"/>
      <point x="-47" y="-331"/>
      <point x="-55" y="-282" type="curve"/>
      <point x="-70" y="-282" type="line"/>
      <point x="-79" y="-331"/>
      <point x="-118" y="-377"/>
      <point x="-174" y="-377" type="curve" smooth="yes"/>
      <point x="-228" y="-377"/>
      <point x="-256" y="-329"/>
      <point x="-256" y="-268" type="curve" smooth="yes"/>
      <point x="-256" y="-191"/>
      <point x="-232" y="-135"/>
      <point x="-173" y="-135" type="curve" smooth="yes"/>
      <point x="-145" y="-135"/>
      <point x="-130" y="-144"/>
      <point x="-130" y="-169" type="curve" smooth="yes"/>
      <point x="-130" y="-191"/>
      <point x="-141" y="-205"/>
      <point x="-174" y="-205" type="curve" smooth="yes"/>
      <point x="-206" y="-205"/>
      <point x="-221" y="-191"/>
      <point x="-221" y="-165" type="curve" smooth="yes"/>
      <point x="-221" y="-157"/>
      <point x="-219" y="-144"/>
      <point x="-216" y="-138" type="curve"/>
      <point x="-209" y="-123"/>
      <point x="-213" y="-106"/>
      <point x="-222" y="-109" type="curve"/>
      <point x="-237" y="-151" type="line"/>
      <point x="-238" y="-166"/>
      <point x="-239" y="-175"/>
      <point x="-239" y="-181" type="curve" smooth="yes"/>
      <point x="-239" y="-227"/>
      <point x="-211" y="-249"/>
      <point x="-169" y="-249" type="curve" smooth="yes"/>
      <point x="-128" y="-249"/>
      <point x="-102" y="-223"/>
      <point x="-102" y="-171" type="curve" smooth="yes"/>
      <point x="-102" y="-125"/>
      <point x="-118" y="-94"/>
      <point x="-176" y="-94" type="curve" smooth="yes"/>
      <point x="-241" y="-94"/>
      <point x="-286" y="-175"/>
      <point x="-286" y="-275" type="curve" smooth="yes"/>
      <point x="-286" y="-370"/>
      <point x="-243" y="-431"/>
      <point x="-174" y="-431" type="curve" smooth="yes"/>
      <point x="-121" y="-431"/>
      <point x="-79" y="-395"/>
      <point x="-66" y="-343" type="curve"/>
      <point x="-59" y="-343" type="line"/>
      <point x="-46" y="-395"/>
      <point x="-4" y="-431"/>
      <point x="47" y="-431" type="curve"/>
    </contour>
  </outline>
</glyph>
<glyph name="knCI" format="1">
  <advance width="739"/>
  <outline>
    <contour>
      <point x="276" y="-14"/>
      <point x="344" y="43"/>
      <point x="367" y="126" type="curve"/>
      <point x="369" y="126" type="line"/>
      <point x="392" y="43"/>
      <point x="460" y="-14"/>
      <point x="528" y="-14" type="curve" smooth="yes"/>
      <point x="594" y="-14"/>
      <point x="655" y="38"/>
      <point x="655" y="125" type="curve" smooth="yes"/>
      <point x="655" y="195"/>
      <point x="609" y="311"/>
      <point x="525" y="327" type="curve"/>
      <point x="506" y="310" type="line"/>
      <point x="566" y="287"/>
      <point x="607" y="221"/>
      <point x="607" y="154" type="curve" smooth="yes"/>
      <point x="607" y="116"/>
      <point x="582" y="71"/>
      <point x="524" y="71" type="curve" smooth="yes"/>
      <point x="451" y="71"/>
      <point x="385" y="146"/>
      <point x="372" y="221" type="curve"/>
      <point x="363" y="221" type="line"/>
      <point x="349" y="145"/>
      <point x="284" y="71"/>
      <point x="211" y="71" type="curve" smooth="yes"/>
      <point x="158" y="71"/>
      <point x="131" y="114"/>
      <point x="131" y="156" type="curve" smooth="yes"/>
      <point x="131" y="187"/>
      <point x="156" y="223"/>
      <point x="189" y="257" type="curve" smooth="yes"/>
      <point x="229" y="298"/>
      <point x="278" y="349"/>
      <point x="278" y="399" type="curve" smooth="yes"/>
      <point x="278" y="465"/>
      <point x="230" y="519"/>
      <point x="154" y="519" type="curve" smooth="yes"/>
      <point x="79" y="519"/>
      <point x="40" y="465"/>
      <point x="40" y="413" type="curve" smooth="yes"/>
      <point x="40" y="381"/>
      <point x="48" y="352"/>
      <point x="69" y="330" type="curve"/>
      <point x="89" y="345" type="line"/>
      <point x="82" y="360"/>
      <point x="79" y="372"/>
      <point x="79" y="383" type="curve" smooth="yes"/>
      <point x="79" y="421"/>
      <point x="102" y="452"/>
      <point x="154" y="452" type="curve" smooth="yes"/>
      <point x="191" y="452"/>
      <point x="225" y="427"/>
      <point x="225" y="385" type="curve" smooth="yes"/>
      <point x="225" y="344"/>
      <point x="194" y="311"/>
      <point x="162" y="278" type="curve" smooth="yes"/>
      <point x="123" y="238"/>
      <point x="80" y="193"/>
      <point x="80" y="125" type="curve" smooth="yes"/>
      <point x="80" y="38"/>
      <point x="141" y="-14"/>
      <point x="208" y="-14" type="curve" smooth="yes"/>
    </contour>
    <contour>
      <point x="666" y="294" type="line"/>
      <point x="666" y="365" type="line"/>
      <point x="390" y="365" type="line"/>
      <point x="390" y="294" type="line"/>
    </contour>
    <contour>
      <point x="555" y="320"/>
      <point x="642" y="395"/>
      <point x="642" y="500" type="curve" smooth="yes"/>
      <point x="642" y="587"/>
      <point x="581" y="680"/>
      <point x="497" y="680" type="curve" smooth="yes"/>
      <point x="438" y="680"/>
      <point x="402" y="635"/>
      <point x="402" y="566" type="curve" smooth="yes"/>
      <point x="402" y="505"/>
      <point x="442" y="456"/>
      <point x="498" y="457" type="curve" smooth="yes"/>
      <point x="556" y="458"/>
      <point x="586" y="511"/>
      <point x="586" y="569" type="curve" smooth="yes"/>
      <point x="586" y="600"/>
      <point x="579" y="618"/>
      <point x="568" y="633" type="curve"/>
      <point x="540" y="637" type="line"/>
      <point x="554" y="623"/>
      <point x="558" y="607"/>
      <point x="558" y="584" type="curve" smooth="yes"/>
      <point x="558" y="554"/>
      <point x="539" y="517"/>
      <point x="492" y="517" type="curve" smooth="yes"/>
      <point x="456" y="517"/>
      <point x="435" y="536"/>
      <point x="435" y="566" type="curve" smooth="yes"/>
      <point x="435" y="589"/>
      <point x="455" y="614"/>
      <point x="499" y="614" type="curve" smooth="yes"/>
      <point x="565" y="614"/>
      <point x="610" y="555"/>
      <point x="610" y="504" type="curve" smooth="yes"/>
      <point x="610" y="437"/>
      <point x="540" y="379"/>
      <point x="419" y="365" type="curve"/>
      <point x="405" y="307" type="line"/>
    </contour>
  </outline>
</glyph>
<glyph name="knDDAc2" format="1">
  <advance width="0"/>
  <outline>
    <contour>
      <point x="-102" y="-412"/>
      <point x="-59" y="-376"/>
      <point x="-45" y="-323" type="curve"/>
      <point x="-41" y="-323" type="line"/>
      <point x="-26" y="-376"/>
      <point x="20" y="-412"/>
      <point x="72" y="-412" type="curve" smooth="yes"/>
      <point x="122" y="-412"/>
      <point x="163" y="-378"/>
      <point x="163" y="-313" type="curve" smooth="yes"/>
      <point x="163" y="-241"/>
      <point x="113" y="-151"/>
      <point x="39" y="-151" type="curve" smooth="yes"/>
      <point x="-1" y="-151"/>
      <point x="-22" y="-177"/>
      <point x="-22" y="-207" type="curve" smooth="yes"/>
      <point x="-22" y="-243"/>
      <point x="3" y="-272"/>
      <point x="47" y="-272" type="curve" smooth="yes"/>
      <point x="87" y="-272"/>
      <point x="125" y="-247"/>
      <point x="125" y="-197" type="curve" smooth="yes"/>
      <point x="125" y="-126"/>
      <point x="42" y="-75"/>
      <point x="-37" y="-75" type="curve" smooth="yes"/>
      <point x="-147" y="-75"/>
      <point x="-246" y="-166"/>
      <point x="-246" y="-291" type="curve" smooth="yes"/>
      <point x="-246" y="-372"/>
      <point x="-206" y="-412"/>
      <point x="-153" y="-412" type="curve" smooth="yes"/>
    </contour>
    <contour>
      <point x="-199" y="-359"/>
      <point x="-209" y="-317"/>
      <point x="-209" y="-281" type="curve" smooth="yes"/>
      <point x="-209" y="-193"/>
      <point x="-134" y="-106"/>
      <point x="-35" y="-106" type="curve" smooth="yes"/>
      <point x="37" y="-106"/>
      <point x="97" y="-151"/>
      <point x="97" y="-193" type="curve" smooth="yes"/>
      <point x="97" y="-215"/>
      <point x="80" y="-233"/>
      <point x="47" y="-233" type="curve" smooth="yes"/>
      <point x="19" y="-233"/>
      <point x="10" y="-218"/>
      <point x="10" y="-205" type="curve" smooth="yes"/>
      <point x="10" y="-191"/>
      <point x="22" y="-179"/>
      <point x="43" y="-179" type="curve" smooth="yes"/>
      <point x="91" y="-179"/>
      <point x="130" y="-233"/>
      <point x="130" y="-285" type="curve" smooth="yes"/>
      <point x="130" y="-322"/>
      <point x="112" y="-359"/>
      <point x="69" y="-359" type="curve" smooth="yes"/>
      <point x="19" y="-359"/>
      <point x="-26" y="-312"/>
      <point x="-34" y="-263" type="curve"/>
      <point x="-50" y="-263" type="line"/>
      <point x="-59" y="-312"/>
      <point x="-97" y="-359"/>
      <point x="-150" y="-359" type="curve" smooth="yes"/>
    </contour>
  </outline>
</glyph>
<glyph name="knDDHAc2.following" format="1">
  <advance width="366"/>
  <outline>
    <contour>
      <point x="-116" y="-470"/>
      <point x="-67" y="-429"/>
      <point x="-51" y="-369" type="curve"/>
      <point x="-45" y="-369" type="line"/>
      <point x="-29" y="-429"/>
      <point x="23" y="-470"/>
      <point x="81" y="-470" type="curve" smooth="yes"/>
      <point x="139" y="-470"/>
      <point x="185" y="-430"/>
      <point x="185" y="-356" type="curve" smooth="yes"/>
      <point x="185" y="-275"/>
      <point x="129" y="-173"/>
      <point x="44" y="-173" type="curve" smooth="yes"/>
      <point x="-1" y="-173"/>
      <point x="-24" y="-200"/>
      <point x="-24" y="-237" type="curve" smooth="yes"/>
      <point x="-24" y="-277"/>
      <point x="3" y="-311"/>
      <point x="53" y="-311" type="curve" smooth="yes"/>
      <point x="98" y="-311"/>
      <point x="142" y="-282"/>
      <point x="142" y="-224" type="curve" smooth="yes"/>
      <point x="142" y="-143"/>
      <point x="48" y="-86"/>
      <point x="-42" y="-86" type="curve" smooth="yes"/>
      <point x="-168" y="-86"/>
      <point x="-280" y="-188"/>
      <point x="-280" y="-331" type="curve" smooth="yes"/>
      <point x="-280" y="-425"/>
      <point x="-235" y="-470"/>
      <point x="-174" y="-470" type="curve" smooth="yes"/>
    </contour>
    <contour>
      <point x="-226" y="-409"/>
      <point x="-239" y="-362"/>
      <point x="-239" y="-321" type="curve" smooth="yes"/>
      <point x="-239" y="-220"/>
      <point x="-153" y="-121"/>
      <point x="-40" y="-121" type="curve" smooth="yes"/>
      <point x="42" y="-121"/>
      <point x="111" y="-173"/>
      <point x="111" y="-220" type="curve" smooth="yes"/>
      <point x="111" y="-245"/>
      <point x="92" y="-264"/>
      <point x="55" y="-264" type="curve" smooth="yes"/>
      <point x="21" y="-264"/>
      <point x="11" y="-248"/>
      <point x="11" y="-234" type="curve" smooth="yes"/>
      <point x="11" y="-217"/>
      <point x="25" y="-205"/>
      <point x="49" y="-205" type="curve" smooth="yes"/>
      <point x="104" y="-205"/>
      <point x="148" y="-265"/>
      <point x="148" y="-326" type="curve" smooth="yes"/>
      <point x="148" y="-367"/>
      <point x="128" y="-409"/>
      <point x="78" y="-409" type="curve" smooth="yes"/>
      <point x="21" y="-409"/>
      <point x="-29" y="-355"/>
      <point x="-39" y="-301" type="curve"/>
      <point x="-56" y="-301" type="line"/>
      <point x="-66" y="-355"/>
      <point x="-110" y="-409"/>
      <point x="-170" y="-409" type="curve" smooth="yes"/>
    </contour>
    <contour>
      <point x="-30" y="-622"/>
      <point x="-12" y="-608"/>
      <point x="-12" y="-580" type="curve" smooth="yes"/>
      <point x="-12" y="-548"/>
      <point x="-32" y="-539"/>
      <point x="-42" y="-452" type="curve"/>
      <point x="-54" y="-452" type="line"/>
      <point x="-63" y="-539"/>
      <point x="-86" y="-548"/>
      <point x="-86" y="-580" type="curve" smooth="yes"/>
      <point x="-86" y="-605"/>
      <point x="-68" y="-622"/>
      <point x="-48" y="-622" type="curve" smooth="yes"/>
    </contour>
  </outline>
</glyph>
<glyph name="knGAc2" format="1">
  <advance width="0"/>
  <outline>
    <contour>
      <point x="3" y="-104"/>
      <point x="56" y="-169"/>
      <point x="56" y="-320" type="curve" smooth="yes"/>
      <point x="56" y="-412" type="line"/>
      <point x="111" y="-412" type="line"/>
      <point x="111" y="-336" type="line" smooth="yes"/>
      <point x="111" y="-192"/>
      <point x="34" y="-75"/>
      <point x="-39" y="-75" type="curve"/>
      <point x="-111" y="-75"/>
      <point x="-188" y="-192"/>
      <point x="-188" y="-336" type="curve" smooth="yes"/>
      <point x="-188" y="-412" type="line"/>
      <point x="-134" y="-412" type="line"/>
      <point x="-134" y="-320" type="line" smooth="yes"/>
      <point x="-134" y="-169"/>
      <point x="-79" y="-104"/>
      <point x="-39" y="-104" type="curve"/>
    </contour>
  </outline>
</glyph>
<glyph name="knGE" format="1">
  <advance width="584"/>
  <outline>
    <contour>
      <point x="133" y="0" type="line"/>
      <point x="133" y="78" type="line" smooth="yes"/>
      <point x="133" y="247"/>
      <point x="187" y="438"/>
      <point x="292" y="438" type="curve" smooth="yes"/>
      <point x="397" y="438"/>
      <point x="451" y="247"/>
      <point x="451" y="78" type="curve" smooth="yes"/>
      <point x="451" y="0" type="line"/>
      <point x="529" y="0" type="line"/>
      <point x="529" y="51" type="line" smooth="yes"/>
      <point x="529" y="186"/>
      <point x="466" y="388"/>
      <point x="363" y="449" type="curve"/>
      <point x="292" y="465" type="line"/>
      <point x="221" y="449" type="line"/>
      <point x="118" y="388"/>
      <point x="55" y="186"/>
      <point x="55" y="51" type="curve" smooth="yes"/>
      <point x="55" y="0" type="line"/>
    </contour>
    <contour>
      <point x="227" y="434" type="line"/>
      <point x="292" y="444" type="line"/>
      <point x="358" y="434" type="line"/>
      <point x="388" y="434" type="line" smooth="yes"/>
      <point x="469" y="434"/>
      <point x="523" y="480"/>
      <point x="523" y="552" type="curve" smooth="yes"/>
      <point x="523" y="607"/>
      <point x="492" y="648"/>
      <point x="449" y="664" type="curve"/>
      <point x="434" y="644" type="line"/>
      <point x="458" y="635"/>
      <point x="480" y="610"/>
      <point x="480" y="576" type="curve" smooth="yes"/>
      <point x="480" y="536"/>
      <point x="449" y="509"/>
      <point x="388" y="509" type="curve" smooth="yes"/>
      <point x="67" y="509" type="line"/>
      <point x="67" y="434" type="line"/>
    </contour>
    <contour>
      <point x="469" y="434"/>
      <point x="523" y="480"/>
      <point x="523" y="553" type="curve" smooth="yes"/>
      <point x="523" y="651"/>
      <point x="445" y="685"/>
      <point x="388" y="685" type="curve" smooth="yes"/>
      <point x="333" y="685"/>
      <point x="305" y="657"/>
      <point x="305" y="625" type="curve" smooth="yes"/>
      <point x="305" y="592"/>
      <point x="328" y="571"/>
      <point x="362" y="571" type="curve" smooth="yes"/>
      <point x="396" y="571"/>
      <point x="417" y="597"/>
      <point x="417" y="633" type="curve" smooth="yes"/>
      <point x="417" y="639"/>
      <point x="419" y="643"/>
      <point x="423" y="643" type="curve" smooth="yes"/>
      <point x="436" y="643"/>
      <point x="480" y="629"/>
      <point x="480" y="577" type="curve"/>
      <point x="480" y="530"/>
      <point x="440" y="509"/>
      <point x="389" y="509" type="curve"/>
      <point x="388" y="434" type="line"/>
    </contour>
  </outline>
</glyph>
<glyph name="knHAA" format="1">
  <advance width="1164"/>
  <outline>
    <contour>
      <point x="1030" y="-13"/>
      <point x="1104" y="93"/>
      <point x="1104" y="239" type="curve" smooth="yes"/>
      <point x="1104" y="390"/>
      <point x="1034" y="509"/>
      <point x="796" y="509" type="curve" smooth="yes"/>
      <point x="519" y="509" type="line"/>
      <point x="519" y="434" type="line"/>
      <point x="805" y="434" type="line" smooth="yes"/>
      <point x="999" y="434"/>
      <point x="1069" y="346"/>
      <point x="1069" y="236" type="curve" smooth="yes"/>
      <point x="1069" y="130"/>
      <point x="1007" y="69"/>
      <point x="917" y="69" type="curve" smooth="yes"/>
      <point x="844" y="69"/>
      <point x="800" y="112"/>
      <point x="799" y="170" type="curve" smooth="yes"/>
      <point x="798" y="212"/>
      <point x="820" y="238"/>
      <point x="832" y="238" type="curve" smooth="yes"/>
      <point x="837" y="238"/>
      <point x="839" y="234"/>
      <point x="838" y="228" type="curve"/>
      <point x="839" y="192"/>
      <point x="860" y="166"/>
      <point x="893" y="166" type="curve" smooth="yes"/>
      <point x="928" y="166"/>
      <point x="954" y="195"/>
      <point x="953" y="231" type="curve"/>
      <point x="954" y="263"/>
      <point x="929" y="300"/>
      <point x="874" y="300" type="curve" smooth="yes"/>
      <point x="802" y="300"/>
      <point x="762" y="236"/>
      <point x="761" y="158" type="curve" smooth="yes"/>
      <point x="762" y="59"/>
      <point x="822" y="-13"/>
      <point x="918" y="-13" type="curve" smooth="yes"/>
    </contour>
    <contour>
      <point x="289" y="-14"/>
      <point x="342" y="25"/>
      <point x="368" y="99" type="curve"/>
      <point x="365" y="247" type="line"/>
      <point x="338" y="302"/>
      <point x="296" y="340"/>
      <point x="221" y="340" type="curve" smooth="yes"/>
      <point x="126" y="340"/>
      <point x="55" y="261"/>
      <point x="55" y="162" type="curve" smooth="yes"/>
      <point x="55" y="64"/>
      <point x="126" y="-14"/>
      <point x="221" y="-14" type="curve" smooth="yes"/>
    </contour>
    <contour>
      <point x="159" y="71"/>
      <point x="105" y="113"/>
      <point x="105" y="187" type="curve" smooth="yes"/>
      <point x="105" y="259"/>
      <point x="159" y="305"/>
      <point x="221" y="305" type="curve" smooth="yes"/>
      <point x="289" y="305"/>
      <point x="341" y="259"/>
      <point x="341" y="187" type="curve" smooth="yes"/>
      <point x="341" y="113"/>
      <point x="288" y="71"/>
      <point x="221" y="71" type="curve" smooth="yes"/>
    </contour>
    <contour>
      <point x="380" y="381"/>
      <point x="345" y="448"/>
      <point x="229" y="470" type="curve"/>
      <point x="229" y="435" type="line"/>
      <point x="311" y="427"/>
      <point x="340" y="363"/>
      <point x="340" y="269" type="curve"/>
      <point x="380" y="234" type="line"/>
    </contour>
    <contour>
      <point x="598" y="-14"/>
      <point x="669" y="64"/>
      <point x="669" y="162" type="curve" smooth="yes"/>
      <point x="669" y="261"/>
      <point x="598" y="340"/>
      <point x="503" y="340" type="curve" smooth="yes"/>
      <point x="428" y="340"/>
      <point x="386" y="302"/>
      <point x="359" y="247" type="curve"/>
      <point x="356" y="99" type="line"/>
      <point x="382" y="25"/>
      <point x="435" y="-14"/>
      <point x="503" y="-14" type="curve" smooth="yes"/>
    </contour>
    <contour>
      <point x="435" y="71"/>
      <point x="383" y="113"/>
      <point x="383" y="187" type="curve" smooth="yes"/>
      <point x="383" y="259"/>
      <point x="435" y="305"/>
      <point x="497" y="305" type="curve" smooth="yes"/>
      <point x="565" y="305"/>
      <point x="619" y="259"/>
      <point x="619" y="187" type="curve" smooth="yes"/>
      <point x="619" y="113"/>
      <point x="564" y="71"/>
      <point x="497" y="71" type="curve" smooth="yes"/>
    </contour>
    <contour>
      <point x="533" y="434" type="line"/>
      <point x="533" y="509" type="line"/>
      <point x="55" y="509" type="line"/>
      <point x="55" y="434" type="line"/>
    </contour>
  </outline>
</glyph>
<glyph name="knJHI" format="1">
  <advance width="1310"/>
  <outline>
    <contour>
      <point x="899" y="-220"/>
      <point x="924" y="-201"/>
      <point x="924" y="-161" type="curve" smooth="yes"/>
      <point x="924" y="-117"/>
      <point x="895" y="-104"/>
      <point x="881" y="16" type="curve"/>
      <point x="865" y="16" type="line"/>
      <point x="852" y="-104"/>
      <point x="821" y="-117"/>
      <point x="821" y="-161" type="curve" smooth="yes"/>
      <point x="821" y="-197"/>
      <point x="846" y="-220"/>
      <point x="873" y="-220" type="curve" smooth="yes"/>
    </contour>
    <contour>
      <point x="818" y="-14"/>
      <point x="898" y="95"/>
      <point x="898" y="242" type="curve" smooth="yes"/>
      <point x="898" y="415"/>
      <point x="802" y="513"/>
      <point x="731" y="513" type="curve" smooth="yes"/>
      <point x="700" y="513"/>
      <point x="683" y="493"/>
      <point x="683" y="470" type="curve" smooth="yes"/>
      <point x="683" y="451"/>
      <point x="695" y="435"/>
      <point x="711" y="430" type="curve" smooth="yes"/>
      <point x="734" y="423"/>
      <point x="755" y="428"/>
      <point x="779" y="420" type="curve" smooth="yes"/>
      <point x="816" y="407"/>
      <point x="863" y="344"/>
      <point x="863" y="255" type="curve" smooth="yes"/>
      <point x="863" y="137"/>
      <point x="793" y="71"/>
      <point x="705" y="71" type="curve" smooth="yes"/>
      <point x="636" y="71"/>
      <point x="583" y="105"/>
      <point x="546" y="207" type="curve"/>
      <point x="526" y="188" type="line"/>
      <point x="544" y="61"/>
      <point x="619" y="-14"/>
      <point x="705" y="-14" type="curve" smooth="yes"/>
    </contour>
    <contour>
      <point x="1154" y="-14"/>
      <point x="1234" y="95"/>
      <point x="1234" y="242" type="curve" smooth="yes"/>
      <point x="1234" y="415"/>
      <point x="1138" y="513"/>
      <point x="1067" y="513" type="curve" smooth="yes"/>
      <point x="1036" y="513"/>
      <point x="1019" y="493"/>
      <point x="1019" y="470" type="curve" smooth="yes"/>
      <point x="1019" y="451"/>
      <point x="1031" y="435"/>
      <point x="1047" y="430" type="curve" smooth="yes"/>
      <point x="1070" y="423"/>
      <point x="1091" y="428"/>
      <point x="1115" y="420" type="curve" smooth="yes"/>
      <point x="1152" y="407"/>
      <point x="1199" y="344"/>
      <point x="1199" y="255" type="curve" smooth="yes"/>
      <point x="1199" y="137"/>
      <point x="1129" y="71"/>
      <point x="1041" y="71" type="curve" smooth="yes"/>
      <point x="972" y="71"/>
      <point x="919" y="105"/>
      <point x="882" y="207" type="curve"/>
      <point x="862" y="188" type="line"/>
      <point x="880" y="61"/>
      <point x="955" y="-14"/>
      <point x="1041" y="-14" type="curve" smooth="yes"/>
    </contour>
    <contour>
      <point x="484" y="-14"/>
      <point x="578" y="86"/>
      <point x="578" y="226" type="curve" smooth="yes"/>
      <point x="578" y="315"/>
      <point x="532" y="398"/>
      <point x="458" y="436" type="curve" smooth="yes"/>
      <point x="426" y="453"/>
      <point x="389" y="461"/>
      <point x="348" y="461" type="curve" smooth="yes"/>
      <point x="307" y="461"/>
      <point x="270" y="453"/>
      <point x="238" y="436" type="curve" smooth="yes"/>
      <point x="164" y="398"/>
      <point x="118" y="315"/>
      <point x="118" y="226" type="curve" smooth="yes"/>
      <point x="118" y="86"/>
      <point x="212" y="-14"/>
      <point x="348" y="-14" type="curve" smooth="yes"/>
    </contour>
    <contour>
      <point x="238" y="71"/>
      <point x="163" y="144"/>
      <point x="163" y="247" type="curve" smooth="yes"/>
      <point x="163" y="348"/>
      <point x="247" y="433"/>
      <point x="348" y="433" type="curve" smooth="yes"/>
      <point x="449" y="433"/>
      <point x="533" y="349"/>
      <point x="533" y="248" type="curve" smooth="yes"/>
      <point x="533" y="145"/>
      <point x="457" y="71"/>
      <point x="348" y="71" type="curve" smooth="yes"/>
    </contour>
    <contour>
      <point x="382" y="203"/>
      <point x="407" y="227"/>
      <point x="407" y="261" type="curve" smooth="yes"/>
      <point x="407" y="295"/>
      <point x="382" y="321"/>
      <point x="348" y="321" type="curve" smooth="yes"/>
      <point x="314" y="321"/>
      <point x="288" y="295"/>
      <point x="288" y="261" type="curve" smooth="yes"/>
      <point x="288" y="227"/>
      <point x="314" y="203"/>
      <point x="348" y="203" type="curve" smooth="yes"/>
    </contour>
    <contour>
      <point x="558" y="325" type="line"/>
      <point x="500" y="468"/>
      <point x="353" y="634"/>
      <point x="189" y="634" type="curve" smooth="yes"/>
      <point x="103" y="634"/>
      <point x="55" y="589"/>
      <point x="55" y="521" type="curve"/>
      <point x="55" y="425"/>
      <point x="140" y="396"/>
      <point x="224" y="410" type="curve"/>
      <point x="254" y="424" type="line"/>
      <point x="273" y="450" type="line"/>
      <point x="169" y="415"/>
      <point x="133" y="468"/>
      <point x="133" y="516" type="curve"/>
      <point x="133" y="558"/>
      <point x="164" y="585"/>
      <point x="220" y="585" type="curve" smooth="yes"/>
      <point x="308" y="585"/>
      <point x="489" y="466"/>
      <point x="534" y="293" type="curve"/>
    </contour>
  </outline>
</glyph>
<glyph name="knK" format="1">
  <advance width="796"/>
  <outline>
    <component base="virama" xOffset="550"/>
    <component base="knKA.base"/>
    <contour>
      <point x="300.0" y="0.0" type="move" name="blwm.kssa"/>
    </contour>
  </outline>
</glyph>
<glyph name="knKA.001" format="1">
  <advance width="480"/>
  <outline>
    <contour>
      <point x="333" y="-14"/>
      <point x="406" y="64"/>
      <point x="406" y="159" type="curve" smooth="yes"/>
      <point x="406" y="249"/>
      <point x="333" y="327"/>
      <point x="239" y="327" type="curve" smooth="yes"/>
      <point x="142" y="327"/>
      <point x="69" y="249"/>
      <point x="69" y="159" type="curve" smooth="yes"/>
      <point x="69" y="64"/>
      <point x="142" y="-14"/>
      <point x="239" y="-14" type="curve" smooth="yes"/>
    </contour>
    <contour>
      <point x="167" y="71"/>
      <point x="117" y="117"/>
      <point x="117" y="186" type="curve" smooth="yes"/>
      <point x="117" y="252"/>
      <point x="176" y="297"/>
      <point x="239" y="297" type="curve" smooth="yes"/>
      <point x="301" y="297"/>
      <point x="359" y="252"/>
      <point x="359" y="186" type="curve" smooth="yes"/>
      <point x="359" y="117"/>
      <point x="310" y="71"/>
      <point x="239" y="71" type="curve" smooth="yes"/>
    </contour>
    <contour>
      <point x="183" y="294" type="line"/>
      <point x="239" y="306" type="line"/>
      <point x="298" y="294" type="line"/>
      <point x="450" y="294" type="line"/>
      <point x="450" y="360" type="line"/>
      <point x="25" y="360" type="line"/>
      <point x="25" y="294" type="line"/>
    </contour>
    <contour>
      <point x="249" y="331"/>
      <point x="266" y="364"/>
      <point x="266" y="401" type="curve" smooth="yes"/>
      <point x="266" y="438"/>
      <point x="249" y="471"/>
      <point x="209" y="488" type="curve"/>
      <point x="196" y="465" type="line"/>
      <point x="220" y="453"/>
      <point x="232" y="430"/>
      <point x="232" y="401" type="curve" smooth="yes"/>
      <point x="232" y="372"/>
      <point x="216" y="350"/>
      <point x="192" y="337" type="curve"/>
      <point x="209" y="314" type="line"/>
    </contour>
    <contour>
      <point x="315" y="434" type="line" smooth="yes"/>
      <point x="397" y="434"/>
      <point x="450" y="480"/>
      <point x="450" y="552" type="curve" smooth="yes"/>
      <point x="450" y="607"/>
      <point x="419" y="648"/>
      <point x="376" y="664" type="curve"/>
      <point x="361" y="644" type="line"/>
      <point x="385" y="635"/>
      <point x="407" y="610"/>
      <point x="407" y="576" type="curve" smooth="yes"/>
      <point x="407" y="536"/>
      <point x="376" y="509"/>
      <point x="315" y="509" type="curve" smooth="yes"/>
      <point x="25" y="509" type="line"/>
      <point x="25" y="434" type="line"/>
    </contour>
  </outline>
</glyph>
<glyph name="knKAc2.following" format="1">
  <advance width="314"/>
  <outline>
    <contour>
      <point x="95" y="-470"/>
      <point x="144" y="-414"/>
      <point x="144" y="-337" type="curve" smooth="yes"/>
      <point x="144" y="-263"/>
      <point x="93" y="-203"/>
      <point x="16" y="-203" type="curve"/>
      <point x="-61" y="-203"/>
      <point x="-112" y="-263"/>
      <point x="-112" y="-337" type="curve" smooth="yes"/>
      <point x="-112" y="-414"/>
      <point x="-63" y="-470"/>
      <point x="16" y="-470" type="curve"/>
    </contour>
    <contour>
      <point x="-44" y="-409"/>
      <point x="-73" y="-378"/>
      <point x="-73" y="-319" type="curve" smooth="yes"/>
      <point x="-73" y="-257"/>
      <point x="-35" y="-223"/>
      <point x="16" y="-223" type="curve"/>
      <point x="67" y="-223"/>
      <point x="105" y="-257"/>
      <point x="105" y="-319" type="curve" smooth="yes"/>
      <point x="105" y="-378"/>
      <point x="76" y="-409"/>
      <point x="16" y="-409" type="curve"/>
    </contour>
    <contour>
      <point x="-25" y="-228" type="line"/>
      <point x="16" y="-220" type="line"/>
      <point x="58" y="-228" type="line"/>
      <point x="171" y="-228" type="line"/>
      <point x="171" y="-181" type="line"/>
      <point x="-143" y="-181" type="line"/>
      <point x="-143" y="-228" type="line"/>
    </contour>
    <contour>
      <point x="48" y="-147"/>
      <point x="57" y="-102"/>
      <point x="57" y="-47" type="curve" smooth="yes"/>
      <point x="57" y="30"/>
      <point x="35" y="58"/>
      <point x="10" y="58" type="curve" smooth="yes"/>
      <point x="-5" y="58"/>
      <point x="-15" y="48"/>
      <point x="-15" y="32" type="curve" smooth="yes"/>
      <point x="-15" y="19"/>
      <point x="-10" y="12"/>
      <point x="3" y="-1" type="curve" smooth="yes"/>
      <point x="15" y="-13"/>
      <point x="24" y="-35"/>
      <point x="24" y="-78" type="curve" smooth="yes"/>
      <point x="24" y="-112"/>
      <point x="18" y="-154"/>
      <point x="3" y="-184" type="curve"/>
      <point x="22" y="-193" type="line"/>
    </contour>
  </outline>
</glyph>
<glyph name="knKHI" format="1">
  <advance width="818"/>
  <outline>
    <contour>
      <point x="738" y="551"/>
      <point x="627" y="724"/>
      <point x="518" y="724" type="curve" smooth="yes"/>
      <point x="459" y="724"/>
      <point x="423" y="679"/>
      <point x="423" y="610" type="curve" smooth="yes"/>
      <point x="423" y="549"/>
      <point x="463" y="500"/>
      <point x="519" y="501" type="curve" smooth="yes"/>
      <point x="577" y="502"/>
      <point x="607" y="555"/>
      <point x="607" y="613" type="curve" smooth="yes"/>
      <point x="607" y="644"/>
      <point x="600" y="662"/>
      <point x="589" y="677" type="curve"/>
      <point x="561" y="681" type="line"/>
      <point x="575" y="667"/>
      <point x="579" y="651"/>
      <point x="579" y="628" type="curve" smooth="yes"/>
      <point x="579" y="598"/>
      <point x="560" y="561"/>
      <point x="513" y="561" type="curve" smooth="yes"/>
      <point x="477" y="561"/>
      <point x="456" y="580"/>
      <point x="456" y="610" type="curve" smooth="yes"/>
      <point x="456" y="633"/>
      <point x="476" y="658"/>
      <point x="520" y="658" type="curve" smooth="yes"/>
      <point x="586" y="658"/>
      <point x="698" y="539"/>
      <point x="698" y="310" type="curve" smooth="yes"/>
      <point x="698" y="147"/>
      <point x="637" y="71"/>
      <point x="530" y="71" type="curve" smooth="yes"/>
      <point x="381" y="71"/>
      <point x="312" y="231"/>
      <point x="168" y="231" type="curve" smooth="yes"/>
      <point x="92" y="231"/>
      <point x="40" y="187"/>
      <point x="40" y="116" type="curve" smooth="yes"/>
      <point x="40" y="46"/>
      <point x="100" y="-14"/>
      <point x="194" y="-14" type="curve" smooth="yes"/>
      <point x="348" y="-14"/>
      <point x="436" y="169"/>
      <point x="436" y="279" type="curve" smooth="yes"/>
      <point x="436" y="445"/>
      <point x="357" y="520"/>
      <point x="258" y="520" type="curve" smooth="yes"/>
      <point x="197" y="520"/>
      <point x="146" y="469"/>
      <point x="146" y="407" type="curve" smooth="yes"/>
      <point x="146" y="350"/>
      <point x="180" y="300"/>
      <point x="236" y="300" type="curve" smooth="yes"/>
      <point x="280" y="300"/>
      <point x="304" y="330"/>
      <point x="304" y="356" type="curve" smooth="yes"/>
      <point x="304" y="385"/>
      <point x="283" y="408"/>
      <point x="256" y="408" type="curve" smooth="yes"/>
      <point x="228" y="408"/>
      <point x="211" y="387"/>
      <point x="211" y="357" type="curve" smooth="yes"/>
      <point x="211" y="352"/>
      <point x="210" y="351"/>
      <point x="207" y="351" type="curve" smooth="yes"/>
      <point x="194" y="351"/>
      <point x="185" y="369"/>
      <point x="185" y="390" type="curve" smooth="yes"/>
      <point x="185" y="426"/>
      <point x="217" y="455"/>
      <point x="265" y="455" type="curve" smooth="yes"/>
      <point x="336" y="455"/>
      <point x="397" y="397"/>
      <point x="397" y="287" type="curve" smooth="yes"/>
      <point x="397" y="159"/>
      <point x="326" y="71"/>
      <point x="199" y="71" type="curve" smooth="yes"/>
      <point x="125" y="71"/>
      <point x="94" y="104"/>
      <point x="94" y="136" type="curve" smooth="yes"/>
      <point x="94" y="167"/>
      <point x="117" y="196"/>
      <point x="169" y="196" type="curve" smooth="yes"/>
      <point x="311" y="196"/>
      <point x="380" y="-14"/>
      <point x="548" y="-14" type="curve" smooth="yes"/>
      <point x="653" y="-14"/>
      <point x="738" y="84"/>
      <point x="738" y="300" type="curve" smooth="yes"/>
    </contour>
  </outline>
</glyph>
<glyph name="knKSSAc2" format="1">
  <advance width="206"/>
  <outline>
    <contour>
      <point x="84" y="-457"/>
      <point x="127" y="-407"/>
      <point x="127" y="-340" type="curve" smooth="yes"/>
      <point x="127" y="-274"/>
      <point x="83" y="-221"/>
      <point x="14" y="-221" type="curve"/>
      <point x="-54" y="-221"/>
      <point x="-98" y="-274"/>
      <point x="-98" y="-340" type="curve" smooth="yes"/>
      <point x="-98" y="-407"/>
      <point x="-55" y="-457"/>
      <point x="14" y="-457" type="curve"/>
    </contour>
    <contour>
      <point x="-39" y="-403"/>
      <point x="-65" y="-375"/>
      <point x="-65" y="-322" type="curve" smooth="yes"/>
      <point x="-65" y="-270"/>
      <point x="-31" y="-239"/>
      <point x="14" y="-239" type="curve"/>
      <point x="59" y="-239"/>
      <point x="92" y="-270"/>
      <point x="92" y="-322" type="curve" smooth="yes"/>
      <point x="92" y="-375"/>
      <point x="66" y="-403"/>
      <point x="14" y="-403" type="curve"/>
    </contour>
    <contour>
      <point x="-22" y="-243" type="line"/>
      <point x="14" y="-237" type="line"/>
      <point x="52" y="-243" type="line"/>
      <point x="150" y="-243" type="line"/>
      <point x="150" y="-202" type="line"/>
      <point x="-125" y="-202" type="line"/>
      <point x="-125" y="-243" type="line"/>
    </contour>
    <contour>
      <point x="42" y="-172"/>
      <point x="51" y="-134"/>
      <point x="51" y="-85" type="curve" smooth="yes"/>
      <point x="51" y="-18"/>
      <point x="31" y="8"/>
      <point x="10" y="8" type="curve" smooth="yes"/>
      <point x="-4" y="8"/>
      <point x="-13" y="-1"/>
      <point x="-13" y="-15" type="curve" smooth="yes"/>
      <point x="-13" y="-28"/>
      <point x="-10" y="-33"/>
      <point x="3" y="-45" type="curve" smooth="yes"/>
      <point x="13" y="-55"/>
      <point x="22" y="-74"/>
      <point x="22" y="-112" type="curve" smooth="yes"/>
      <point x="22" y="-141"/>
      <point x="17" y="-178"/>
      <point x="3" y="-205" type="curve"/>
      <point x="20" y="-213" type="line"/>
    </contour>
    <contour>
      <point x="200" y="-717"/>
      <point x="210" y="-725"/>
      <point x="223" y="-725" type="curve" smooth="yes"/>
      <point x="241" y="-725"/>
      <point x="249" y="-713"/>
      <point x="249" y="-684" type="curve" smooth="yes"/>
      <point x="249" y="-618"/>
      <point x="228" y="-522"/>
      <point x="200" y="-464" type="curve" smooth="yes"/>
      <point x="188" y="-433"/>
      <point x="177" y="-415"/>
      <point x="162" y="-415" type="curve" smooth="yes"/>
      <point x="151" y="-415"/>
      <point x="145" y="-421"/>
      <point x="145" y="-433" type="curve" smooth="yes"/>
      <point x="145" y="-443"/>
      <point x="147" y="-450"/>
      <point x="161" y="-461" type="curve" smooth="yes"/>
      <point x="182" y="-483"/>
      <point x="186" y="-507"/>
      <point x="186" y="-541" type="curve" smooth="yes"/>
      <point x="186" y="-591"/>
      <point x="169" y="-636"/>
      <point x="114" y="-636" type="curve" smooth="yes"/>
      <point x="70" y="-636"/>
      <point x="33" y="-591"/>
      <point x="25" y="-547" type="curve"/>
      <point x="11" y="-547" type="line"/>
      <point x="1" y="-591"/>
      <point x="-41" y="-636"/>
      <point x="-89" y="-636" type="curve" smooth="yes"/>
      <point x="-125" y="-636"/>
      <point x="-147" y="-619"/>
      <point x="-147" y="-586" type="curve" smooth="yes"/>
      <point x="-147" y="-556"/>
      <point x="-129" y="-542"/>
      <point x="-102" y="-542" type="curve" smooth="yes"/>
      <point x="-83" y="-542"/>
      <point x="-69" y="-552"/>
      <point x="-63" y="-566" type="curve"/>
      <point x="-46" y="-556" type="line"/>
      <point x="-55" y="-531"/>
      <point x="-72" y="-509"/>
      <point x="-105" y="-509" type="curve" smooth="yes"/>
      <point x="-152" y="-509"/>
      <point x="-174" y="-535"/>
      <point x="-174" y="-591" type="curve" smooth="yes"/>
      <point x="-174" y="-644"/>
      <point x="-147" y="-679"/>
      <point x="-90" y="-679" type="curve" smooth="yes"/>
      <point x="-46" y="-679"/>
      <point x="0" y="-654"/>
      <point x="15" y="-606" type="curve"/>
      <point x="20" y="-606" type="line"/>
      <point x="34" y="-654"/>
      <point x="79" y="-679"/>
      <point x="124" y="-679" type="curve" smooth="yes"/>
      <point x="185" y="-679"/>
      <point x="208" y="-623"/>
      <point x="208" y="-558" type="curve" smooth="yes"/>
      <point x="208" y="-539" type="line"/>
      <point x="213" y="-558"/>
      <point x="215" y="-577"/>
      <point x="215" y="-596" type="curve" smooth="yes"/>
      <point x="215" y="-643"/>
      <point x="200" y="-690"/>
      <point x="200" y="-704" type="curve" smooth="yes"/>
    </contour>
  </outline>
</glyph>
<glyph name="knLLAc2.following" format="1">
  <advance width="423"/>
  <outline>
    <contour>
      <point x="119" y="-20"/>
      <point x="58" y="60"/>
      <point x="17" y="60" type="curve" smooth="yes"/>
      <point x="0" y="60"/>
      <point x="-8" y="51"/>
      <point x="-8" y="36" type="curve" smooth="yes"/>
      <point x="-8" y="21"/>
      <point x="-1" y="14"/>
      <point x="11" y="3" type="curve" smooth="yes"/>
      <point x="30" y="-13"/>
      <point x="87" y="-63"/>
      <point x="87" y="-133" type="curve" smooth="yes"/>
      <point x="87" y="-267"/>
      <point x="-109" y="-282"/>
      <point x="-109" y="-397" type="curve" smooth="yes"/>
      <point x="-109" y="-449"/>
      <point x="-77" y="-470"/>
      <point x="-26" y="-470" type="curve" smooth="yes"/>
      <point x="23" y="-470"/>
      <point x="54" y="-444"/>
      <point x="54" y="-389" type="curve" smooth="yes"/>
      <point x="54" y="-242"/>
      <point x="-206" y="-321"/>
      <point x="-206" y="-198" type="curve" smooth="yes"/>
      <point x="-206" y="-155"/>
      <point x="-159" y="-132"/>
      <point x="-110" y="-132" type="curve" smooth="yes"/>
      <point x="-68" y="-132"/>
      <point x="-62" y="-149"/>
      <point x="-62" y="-162" type="curve" smooth="yes"/>
      <point x="-62" y="-178"/>
      <point x="-72" y="-191"/>
      <point x="-105" y="-191" type="curve" smooth="yes"/>
      <point x="-136" y="-191"/>
      <point x="-150" y="-175"/>
      <point x="-150" y="-152" type="curve" smooth="yes"/>
      <point x="-150" y="-135"/>
      <point x="-146" y="-120"/>
      <point x="-141" y="-116" type="curve"/>
      <point x="-159" y="-112" type="line"/>
      <point x="-167" y="-128"/>
      <point x="-172" y="-145"/>
      <point x="-172" y="-164" type="curve" smooth="yes"/>
      <point x="-172" y="-207"/>
      <point x="-146" y="-237"/>
      <point x="-105" y="-237" type="curve" smooth="yes"/>
      <point x="-58" y="-237"/>
      <point x="-41" y="-198"/>
      <point x="-41" y="-161" type="curve" smooth="yes"/>
      <point x="-41" y="-123"/>
      <point x="-64" y="-86"/>
      <point x="-115" y="-86" type="curve" smooth="yes"/>
      <point x="-185" y="-86"/>
      <point x="-236" y="-128"/>
      <point x="-236" y="-198" type="curve" smooth="yes"/>
      <point x="-236" y="-382"/>
      <point x="28" y="-310"/>
      <point x="28" y="-380" type="curve" smooth="yes"/>
      <point x="28" y="-403"/>
      <point x="5" y="-409"/>
      <point x="-22" y="-409" type="curve" smooth="yes"/>
      <point x="-53" y="-409"/>
      <point x="-76" y="-402"/>
      <point x="-76" y="-378" type="curve" smooth="yes"/>
      <point x="-76" y="-313"/>
      <point x="119" y="-275"/>
      <point x="119" y="-124" type="curve" smooth="yes"/>
    </contour>
  </outline>
</glyph>
<glyph name="knLLUU" format="1">
  <advance width="1195"/>
  <outline>
    <contour>
      <point x="690" y="-14"/>
      <point x="720" y="103"/>
      <point x="720" y="274" type="curve" smooth="yes"/>
      <point x="720" y="416"/>
      <point x="809" y="437"/>
      <point x="887" y="437" type="curve" smooth="yes"/>
      <point x="981" y="437"/>
      <point x="1103" y="357"/>
      <point x="1103" y="235" type="curve" smooth="yes"/>
      <point x="1103" y="140"/>
      <point x="1053" y="71"/>
      <point x="961" y="71" type="curve" smooth="yes"/>
      <point x="890" y="71"/>
      <point x="848" y="112"/>
      <point x="848" y="169" type="curve" smooth="yes"/>
      <point x="848" y="211"/>
      <point x="857" y="237"/>
      <point x="869" y="237" type="curve" smooth="yes"/>
      <point x="874" y="237"/>
      <point x="875" y="232"/>
      <point x="875" y="227" type="curve" smooth="yes"/>
      <point x="875" y="191"/>
      <point x="897" y="165"/>
      <point x="930" y="165" type="curve" smooth="yes"/>
      <point x="965" y="165"/>
      <point x="990" y="194"/>
      <point x="990" y="230" type="curve" smooth="yes"/>
      <point x="990" y="262"/>
      <point x="965" y="299"/>
      <point x="912" y="299" type="curve" smooth="yes"/>
      <point x="833" y="299"/>
      <point x="796" y="233"/>
      <point x="796" y="155" type="curve" smooth="yes"/>
      <point x="796" y="56"/>
      <point x="859" y="-14"/>
      <point x="945" y="-14" type="curve" smooth="yes"/>
      <point x="1056" y="-14"/>
      <point x="1142" y="82"/>
      <point x="1142" y="238" type="curve" smooth="yes"/>
      <point x="1142" y="424"/>
      <point x="1004" y="519"/>
      <point x="887" y="519" type="curve" smooth="yes"/>
      <point x="794" y="519"/>
      <point x="673" y="456"/>
      <point x="673" y="273" type="curve" smooth="yes"/>
      <point x="673" y="177"/>
      <point x="657" y="71"/>
      <point x="564" y="71" type="curve" smooth="yes"/>
      <point x="483" y="71"/>
      <point x="433" y="145"/>
      <point x="404" y="222" type="curve"/>
      <point x="402" y="182" type="line"/>
      <point x="421" y="84"/>
      <point x="478" y="-14"/>
      <point x="567" y="-14" type="curve" smooth="yes"/>
    </contour>
    <component base="knLLA"/>
  </outline>
</glyph>
<glyph name="knLU" format="1">
  <advance width="1080"/>
  <outline>
    <contour>
      <point x="945" y="-14"/>
      <point x="1025" y="95"/>
      <point x="1025" y="242" type="curve" smooth="yes"/>
      <point x="1025" y="415"/>
      <point x="929" y="513"/>
      <point x="858" y="513" type="curve" smooth="yes"/>
      <point x="827" y="513"/>
      <point x="810" y="493"/>
      <point x="810" y="470" type="curve" smooth="yes"/>
      <point x="810" y="451"/>
      <point x="822" y="435"/>
      <point x="838" y="430" type="curve" smooth="yes"/>
      <point x="861" y="423"/>
      <point x="882" y="428"/>
      <point x="906" y="420" type="curve" smooth="yes"/>
      <point x="943" y="407"/>
      <point x="990" y="344"/>
      <point x="990" y="255" type="curve" smooth="yes"/>
      <point x="990" y="137"/>
      <point x="920" y="71"/>
      <point x="832" y="71" type="curve" smooth="yes"/>
      <point x="753" y="71"/>
      <point x="688" y="132"/>
      <point x="653" y="235" type="curve"/>
      <point x="633" y="216" type="line"/>
      <point x="651" y="89"/>
      <point x="736" y="-14"/>
      <point x="832" y="-14" type="curve" smooth="yes"/>
    </contour>
    <component base="knLA"/>
  </outline>
</glyph>
<glyph name="knMAc2" format="1">
  <advance width="62"/>
  <outline>
    <contour>
      <point x="-32" y="-158"/>
      <point x="61" y="-103"/>
      <point x="61" y="-33" type="curve" smooth="yes"/>
      <point x="61" y="17"/>
      <point x="45" y="54"/>
      <point x="15" y="54" type="curve" smooth="yes"/>
      <point x="3" y="54"/>
      <point x="-8" y="44"/>
      <point x="-8" y="33" type="curve" smooth="yes"/>
      <point x="-8" y="6"/>
      <point x="24" y="-10"/>
      <point x="24" y="-44" type="curve" smooth="yes"/>
      <point x="24" y="-112"/>
      <point x="-64" y="-153"/>
      <point x="-64" y="-219" type="curve" smooth="yes"/>
      <point x="-64" y="-263"/>
      <point x="-30" y="-298"/>
      <point x="30" y="-298" type="curve" smooth="yes"/>
      <point x="69" y="-298"/>
      <point x="118" y="-272"/>
      <point x="118" y="-232" type="curve" smooth="yes"/>
      <point x="118" y="-195"/>
      <point x="85" y="-167"/>
      <point x="19" y="-167" type="curve" smooth="yes"/>
      <point x="-73" y="-167"/>
      <point x="-156" y="-215"/>
      <point x="-156" y="-296" type="curve" smooth="yes"/>
      <point x="-156" y="-372"/>
      <point x="-74" y="-432"/>
      <point x="33" y="-432" type="curve" smooth="yes"/>
      <point x="141" y="-432"/>
      <point x="213" y="-370"/>
      <point x="213" y="-308" type="curve" smooth="yes"/>
      <point x="213" y="-285"/>
      <point x="205" y="-260"/>
      <point x="198" y="-248" type="curve"/>
      <point x="178" y="-250" type="line"/>
      <point x="185" y="-263"/>
      <point x="187" y="-271"/>
      <point x="187" y="-281" type="curve" smooth="yes"/>
      <point x="187" y="-333"/>
      <point x="122" y="-376"/>
      <point x="33" y="-376" type="curve" smooth="yes"/>
      <point x="-61" y="-376"/>
      <point x="-122" y="-330"/>
      <point x="-122" y="-276" type="curve" smooth="yes"/>
      <point x="-122" y="-224"/>
      <point x="-58" y="-190"/>
      <point x="12" y="-190" type="curve" smooth="yes"/>
      <point x="58" y="-190"/>
      <point x="76" y="-202"/>
      <point x="76" y="-224" type="curve" smooth="yes"/>
      <point x="76" y="-242"/>
      <point x="56" y="-257"/>
      <point x="26" y="-257" type="curve" smooth="yes"/>
      <point x="-19" y="-257"/>
      <point x="-32" y="-238"/>
      <point x="-32" y="-212" type="curve" smooth="yes"/>
    </contour>
  </outline>
</glyph>
<glyph name="knNAc2.following" format="1">
  <advance width="370"/>
  <outline>
    <contour>
      <point x="-120" y="-355"/>
      <point x="-160" y="-326"/>
      <point x="-160" y="-273" type="curve" smooth="yes"/>
      <point x="-160" y="-233"/>
      <point x="-132" y="-200"/>
      <point x="-91" y="-200" type="curve" smooth="yes"/>
      <point x="38" y="-200"/>
      <point x="21" y="-470"/>
      <point x="187" y="-470" type="curve" smooth="yes"/>
      <point x="210" y="-470"/>
      <point x="223" y="-457"/>
      <point x="223" y="-441" type="curve" smooth="yes"/>
      <point x="223" y="-423"/>
      <point x="215" y="-409"/>
      <point x="188" y="-409" type="curve" smooth="yes"/>
      <point x="7" y="-409"/>
      <point x="67" y="-165"/>
      <point x="-91" y="-165" type="curve" smooth="yes"/>
      <point x="-152" y="-165"/>
      <point x="-196" y="-213"/>
      <point x="-196" y="-277" type="curve" smooth="yes"/>
      <point x="-196" y="-354"/>
      <point x="-149" y="-415"/>
      <point x="-47" y="-415" type="curve" smooth="yes"/>
      <point x="45" y="-415"/>
      <point x="134" y="-341"/>
      <point x="134" y="-191" type="curve" smooth="yes"/>
      <point x="134" y="-47"/>
      <point x="58" y="60"/>
      <point x="17" y="60" type="curve" smooth="yes"/>
      <point x="2" y="60"/>
      <point x="-8" y="49"/>
      <point x="-8" y="36" type="curve" smooth="yes"/>
      <point x="-8" y="21"/>
      <point x="0" y="11"/>
      <point x="18" y="-5" type="curve" smooth="yes"/>
      <point x="43" y="-27"/>
      <point x="107" y="-96"/>
      <point x="107" y="-196" type="curve" smooth="yes"/>
      <point x="107" y="-304"/>
      <point x="31" y="-355"/>
      <point x="-50" y="-355" type="curve" smooth="yes"/>
    </contour>
  </outline>
</glyph>
<glyph name="knNE" format="1">
  <advance width="619"/>
  <outline>
    <contour>
      <point x="174" y="-75"/>
      <point x="204" y="-66"/>
      <point x="204" y="-43" type="curve" smooth="yes"/>
      <point x="204" y="-20"/>
      <point x="188" y="1"/>
      <point x="163" y="10" type="curve" smooth="yes"/>
      <point x="112" y="27"/>
      <point x="80" y="73"/>
      <point x="80" y="112" type="curve" smooth="yes"/>
      <point x="80" y="171"/>
      <point x="113" y="212"/>
      <point x="169" y="212" type="curve" smooth="yes"/>
      <point x="327" y="212"/>
      <point x="257" y="-14"/>
      <point x="411" y="-14" type="curve" smooth="yes"/>
      <point x="491" y="-14"/>
      <point x="554" y="72"/>
      <point x="554" y="176" type="curve" smooth="yes"/>
      <point x="554" y="295"/>
      <point x="478" y="399"/>
      <point x="343" y="437" type="curve"/>
      <point x="217" y="438" type="line"/>
      <point x="259" y="432" type="line"/>
      <point x="405" y="398"/>
      <point x="506" y="311"/>
      <point x="506" y="188" type="curve" smooth="yes"/>
      <point x="506" y="116"/>
      <point x="463" y="71"/>
      <point x="411" y="71" type="curve" smooth="yes"/>
      <point x="277" y="71"/>
      <point x="317" y="294"/>
      <point x="170" y="294" type="curve" smooth="yes"/>
      <point x="104" y="294"/>
      <point x="45" y="224"/>
      <point x="45" y="140" type="curve" smooth="yes"/>
      <point x="45" y="54"/>
      <point x="85" y="-23"/>
      <point x="151" y="-61" type="curve" smooth="yes"/>
    </contour>
    <contour>
      <point x="400" y="434" type="line" smooth="yes"/>
      <point x="482" y="434"/>
      <point x="535" y="480"/>
      <point x="535" y="552" type="curve" smooth="yes"/>
      <point x="535" y="607"/>
      <point x="504" y="648"/>
      <point x="461" y="664" type="curve"/>
      <point x="446" y="644" type="line"/>
      <point x="470" y="635"/>
      <point x="492" y="610"/>
      <point x="492" y="576" type="curve" smooth="yes"/>
      <point x="492" y="537"/>
      <point x="461" y="509"/>
      <point x="400" y="509" type="curve" smooth="yes"/>
      <point x="45" y="509" type="line"/>
      <point x="45" y="434" type="line"/>
    </contour>
    <contour>
      <point x="481" y="434"/>
      <point x="535" y="480"/>
      <point x="535" y="553" type="curve" smooth="yes"/>
      <point x="535" y="651"/>
      <point x="457" y="685"/>
      <point x="400" y="685" type="curve" smooth="yes"/>
      <point x="345" y="685"/>
      <point x="317" y="657"/>
      <point x="317" y="625" type="curve" smooth="yes"/>
      <point x="317" y="592"/>
      <point x="340" y="571"/>
      <point x="374" y="571" type="curve" smooth="yes"/>
      <point x="408" y="571"/>
      <point x="429" y="597"/>
      <point x="429" y="633" type="curve" smooth="yes"/>
      <point x="429" y="639"/>
      <point x="431" y="643"/>
      <point x="435" y="643" type="curve" smooth="yes"/>
      <point x="448" y="643"/>
      <point x="492" y="629"/>
      <point x="492" y="577" type="curve"/>
      <point x="492" y="530"/>
      <point x="452" y="509"/>
      <point x="401" y="509" type="curve"/>
      <point x="400" y="434" type="line"/>
    </contour>
  </outline>
</glyph>
<glyph name="knNG" format="1">
  <advance width="961"/>
  <outline>
    <contour>
      <point x="915" y="265"/>
      <point x="948" y="315"/>
      <point x="948" y="382" type="curve" smooth="yes"/>
      <point x="948" y="448"/>
      <point x="905" y="509"/>
      <point x="804" y="509" type="curve" smooth="yes"/>
      <point x="567" y="509" type="line"/>
      <point x="567" y="434" type="line"/>
      <point x="839" y="434" type="line" smooth="yes"/>
      <point x="902" y="434"/>
      <point x="918" y="412"/>
      <point x="918" y="385" type="curve" smooth="yes"/>
      <point x="918" y="355"/>
      <point x="902" y="334"/>
      <point x="866" y="334" type="curve" smooth="yes"/>
      <point x="820" y="334"/>
      <point x="795" y="369"/>
      <point x="795" y="410" type="curve" smooth="yes"/>
      <point x="795" y="520"/>
      <point x="909" y="582"/>
      <point x="1001" y="598" type="curve"/>
      <point x="990" y="634" type="line"/>
      <point x="878" y="607"/>
      <point x="757" y="541"/>
      <point x="757" y="406" type="curve" smooth="yes"/>
      <point x="757" y="320"/>
      <point x="806" y="265"/>
      <point x="858" y="265" type="curve" smooth="yes"/>
    </contour>
    <component base="knNGA"/>
  </outline>
</glyph>
<glyph name="knNI" format="1">
  <advance width="596"/>
  <outline>
    <contour>
      <point x="551" y="457"/>
      <point x="419" y="704"/>
      <point x="280" y="704" type="curve" smooth="yes"/>
      <point x="221" y="704"/>
      <point x="185" y="659"/>
      <point x="185" y="590" type="curve" smooth="yes"/>
      <point x="185" y="529"/>
      <point x="225" y="480"/>
      <point x="281" y="481" type="curve" smooth="yes"/>
      <point x="339" y="482"/>
      <point x="369" y="535"/>
      <point x="369" y="593" type="curve" smooth="yes"/>
      <point x="369" y="624"/>
      <point x="362" y="642"/>
      <point x="351" y="657" type="curve"/>
      <point x="323" y="661" type="line"/>
      <point x="337" y="647"/>
      <point x="341" y="631"/>
      <point x="341" y="608" type="curve" smooth="yes"/>
      <point x="341" y="578"/>
      <point x="322" y="541"/>
      <point x="275" y="541" type="curve" smooth="yes"/>
      <point x="239" y="541"/>
      <point x="218" y="560"/>
      <point x="218" y="590" type="curve" smooth="yes"/>
      <point x="218" y="613"/>
      <point x="238" y="638"/>
      <point x="282" y="638" type="curve" smooth="yes"/>
      <point x="378" y="638"/>
      <point x="506" y="457"/>
      <point x="506" y="207" type="curve" smooth="yes"/>
      <point x="506" y="116"/>
      <point x="463" y="71"/>
      <point x="411" y="71" type="curve" smooth="yes"/>
      <point x="277" y="71"/>
      <point x="317" y="294"/>
      <point x="170" y="294" type="curve" smooth="yes"/>
      <point x="104" y="294"/>
      <point x="45" y="224"/>
      <point x="45" y="140" type="curve" smooth="yes"/>
      <point x="45" y="54"/>
      <point x="85" y="-23"/>
      <point x="151" y="-61" type="curve" smooth="yes"/>
      <point x="174" y="-75"/>
      <point x="204" y="-66"/>
      <point x="204" y="-43" type="curve" smooth="yes"/>
      <point x="204" y="-20"/>
      <point x="188" y="1"/>
      <point x="163" y="10" type="curve" smooth="yes"/>
      <point x="112" y="27"/>
      <point x="80" y="73"/>
      <point x="80" y="112" type="curve" smooth="yes"/>
      <point x="80" y="171"/>
      <point x="113" y="212"/>
      <point x="169" y="212" type="curve" smooth="yes"/>
      <point x="327" y="212"/>
      <point x="257" y="-14"/>
      <point x="411" y="-14" type="curve" smooth="yes"/>
      <point x="491" y="-14"/>
      <point x="551" y="72"/>
      <point x="551" y="215" type="curve" smooth="yes"/>
    </contour>
  </outline>
</glyph>
<glyph name="knNNE" format="1">
  <advance width="805"/>
  <outline>
    <contour>
      <point x="259" y="-14"/>
      <point x="297" y="57"/>
      <point x="300" y="103" type="curve"/>
      <point x="277" y="112" type="line"/>
      <point x="256" y="70"/>
      <point x="223" y="52"/>
      <point x="178" y="52" type="curve" smooth="yes"/>
      <point x="136" y="52"/>
      <point x="114" y="69"/>
      <point x="114" y="93" type="curve" smooth="yes"/>
      <point x="114" y="128"/>
      <point x="156" y="161"/>
      <point x="243" y="172" type="curve"/>
      <point x="243" y="183" type="line"/>
      <point x="162" y="194"/>
      <point x="113" y="231"/>
      <point x="113" y="270" type="curve" smooth="yes"/>
      <point x="113" y="302"/>
      <point x="146" y="328"/>
      <point x="206" y="328" type="curve" smooth="yes"/>
      <point x="283" y="328"/>
      <point x="342" y="277"/>
      <point x="356" y="214" type="curve"/>
      <point x="365" y="214" type="line"/>
      <point x="378" y="276"/>
      <point x="443" y="328"/>
      <point x="527" y="328" type="curve" smooth="yes"/>
      <point x="640" y="328"/>
      <point x="705" y="264"/>
      <point x="705" y="188" type="curve" smooth="yes"/>
      <point x="705" y="101"/>
      <point x="633" y="56"/>
      <point x="560" y="56" type="curve" smooth="yes"/>
      <point x="498" y="56"/>
      <point x="459" y="82"/>
      <point x="459" y="116" type="curve" smooth="yes"/>
      <point x="459" y="151"/>
      <point x="488" y="170"/>
      <point x="525" y="170" type="curve" smooth="yes"/>
      <point x="555" y="170"/>
      <point x="579" y="160"/>
      <point x="591" y="144" type="curve"/>
      <point x="607" y="156" type="line"/>
      <point x="594" y="189"/>
      <point x="568" y="224"/>
      <point x="520" y="224" type="curve" smooth="yes"/>
      <point x="460" y="224"/>
      <point x="419" y="178"/>
      <point x="419" y="110" type="curve" smooth="yes"/>
      <point x="419" y="36"/>
      <point x="481" y="-14"/>
      <point x="562" y="-14" type="curve" smooth="yes"/>
      <point x="666" y="-14"/>
      <point x="740" y="71"/>
      <point x="740" y="177" type="curve" smooth="yes"/>
      <point x="740" y="298"/>
      <point x="661" y="395"/>
      <point x="539" y="395" type="curve" smooth="yes"/>
      <point x="453" y="395"/>
      <point x="395" y="350"/>
      <point x="362" y="286" type="curve"/>
      <point x="359" y="286" type="line"/>
      <point x="326" y="350"/>
      <point x="274" y="395"/>
      <point x="198" y="395" type="curve" smooth="yes"/>
      <point x="123" y="395"/>
      <point x="65" y="353"/>
      <point x="65" y="292" type="curve" smooth="yes"/>
      <point x="65" y="235"/>
      <point x="124" y="185"/>
      <point x="171" y="179" type="curve"/>
      <point x="109" y="165"/>
      <point x="65" y="126"/>
      <point x="65" y="78" type="curve" smooth="yes"/>
      <point x="65" y="27"/>
      <point x="108" y="-14"/>
      <point x="178" y="-14" type="curve" smooth="yes"/>
    </contour>
    <contour>
      <point x="599" y="434" type="line" smooth="yes"/>
      <point x="680" y="434"/>
      <point x="734" y="480"/>
      <point x="734" y="552" type="curve" smooth="yes"/>
      <point x="734" y="607"/>
      <point x="703" y="648"/>
      <point x="660" y="664" type="curve"/>
      <point x="645" y="644" type="line"/>
      <point x="669" y="635"/>
      <point x="691" y="610"/>
      <point x="691" y="576" type="curve" smooth="yes"/>
      <point x="691" y="536"/>
      <point x="660" y="509"/>
      <point x="599" y="509" type="curve" smooth="yes"/>
      <point x="75" y="509" type="line"/>
      <point x="75" y="434" type="line"/>
    </contour>
    <contour>
      <point x="680" y="434"/>
      <point x="734" y="480"/>
      <point x="734" y="553" type="curve" smooth="yes"/>
      <point x="734" y="651"/>
      <point x="656" y="685"/>
      <point x="599" y="685" type="curve" smooth="yes"/>
      <point x="544" y="685"/>
      <point x="516" y="657"/>
      <point x="516" y="625" type="curve" smooth="yes"/>
      <point x="516" y="592"/>
      <point x="539" y="571"/>
      <point x="573" y="571" type="curve" smooth="yes"/>
      <point x="607" y="571"/>
      <point x="628" y="597"/>
      <point x="628" y="633" type="curve" smooth="yes"/>
      <point x="628" y="639"/>
      <point x="630" y="643"/>
      <point x="634" y="643" type="curve" smooth="yes"/>
      <point x="647" y="643"/>
      <point x="691" y="629"/>
      <point x="691" y="577" type="curve"/>
      <point x="691" y="530"/>
      <point x="651" y="509"/>
      <point x="600" y="509" type="curve"/>
      <point x="599" y="434" type="line"/>
    </contour>
  </outline>
</glyph>
<glyph name="knNYA.base" format="1">
  <advance width="969"/>
  <outline>
    <contour>
      <point x="646" y="-97"/>
      <point x="657" y="-85"/>
      <point x="657" y="-61" type="curve" smooth="yes"/>
      <point x="657" y="60"/>
      <point x="561" y="223"/>
      <point x="383" y="223" type="curve" smooth="yes"/>
      <point x="286" y="223"/>
      <point x="226" y="180"/>
      <point x="226" y="117" type="curve" smooth="yes"/>
      <point x="226" y="40"/>
      <point x="301" y="-14"/>
      <point x="412" y="-14" type="curve" smooth="yes"/>
      <point x="537" y="-14"/>
      <point x="660" y="78"/>
      <point x="660" y="294" type="curve"/>
      <point x="660" y="430"/>
      <point x="590" y="519"/>
      <point x="499" y="519" type="curve" smooth="yes"/>
      <point x="428" y="519"/>
      <point x="360" y="461"/>
      <point x="337" y="377" type="curve"/>
      <point x="335" y="377" type="line"/>
      <point x="312" y="461"/>
      <point x="244" y="519"/>
      <point x="175" y="519" type="curve" smooth="yes"/>
      <point x="85" y="519"/>
      <point x="40" y="456"/>
      <point x="40" y="387" type="curve" smooth="yes"/>
      <point x="40" y="352"/>
      <point x="49" y="323"/>
      <point x="70" y="296" type="curve"/>
      <point x="101" y="317" type="line"/>
      <point x="94" y="325"/>
      <point x="88" y="340"/>
      <point x="88" y="367" type="curve" smooth="yes"/>
      <point x="88" y="392"/>
      <point x="104" y="444"/>
      <point x="178" y="444" type="curve" smooth="yes"/>
      <point x="262" y="444"/>
      <point x="318" y="358"/>
      <point x="332" y="283" type="curve"/>
      <point x="340" y="283" type="line"/>
      <point x="354" y="358"/>
      <point x="410" y="444"/>
      <point x="494" y="444" type="curve" smooth="yes"/>
      <point x="567" y="444"/>
      <point x="622" y="392"/>
      <point x="622" y="295" type="curve"/>
      <point x="622" y="129"/>
      <point x="526" y="71"/>
      <point x="405" y="71" type="curve"/>
      <point x="310" y="71"/>
      <point x="279" y="96"/>
      <point x="279" y="127" type="curve" smooth="yes"/>
      <point x="279" y="153"/>
      <point x="310" y="184"/>
      <point x="382" y="184" type="curve" smooth="yes"/>
      <point x="527" y="184"/>
      <point x="609" y="48"/>
      <point x="609" y="-70" type="curve" smooth="yes"/>
      <point x="609" y="-85"/>
      <point x="620" y="-97"/>
      <point x="633" y="-97" type="curve" smooth="yes"/>
    </contour>
    <contour>
      <point x="655" y="367"/>
      <point x="710" y="444"/>
      <point x="791" y="444" type="curve" smooth="yes"/>
      <point x="865" y="444"/>
      <point x="881" y="392"/>
      <point x="881" y="367" type="curve" smooth="yes"/>
      <point x="881" y="340"/>
      <point x="875" y="325"/>
      <point x="868" y="317" type="curve"/>
      <point x="899" y="296" type="line"/>
      <point x="920" y="323"/>
      <point x="929" y="352"/>
      <point x="929" y="387" type="curve" smooth="yes"/>
      <point x="929" y="456"/>
      <point x="884" y="519"/>
      <point x="805" y="519" type="curve" smooth="yes"/>
      <point x="719" y="519"/>
      <point x="647" y="441"/>
      <point x="644" y="347" type="curve"/>
      <point x="654" y="293" type="line"/>
    </contour>
  </outline>
</glyph>
<glyph name="knNYAA" format="1">
  <advance width="1375"/>
  <outline>
    <contour>
      <point x="646" y="-97"/>
      <point x="657" y="-85"/>
      <point x="657" y="-61" type="curve" smooth="yes"/>
      <point x="657" y="60"/>
      <point x="561" y="223"/>
      <point x="383" y="223" type="curve" smooth="yes"/>
      <point x="286" y="223"/>
      <point x="226" y="180"/>
      <point x="226" y="117" type="curve" smooth="yes"/>
      <point x="226" y="40"/>
      <point x="301" y="-14"/>
      <point x="412" y="-14" type="curve" smooth="yes"/>
      <point x="537" y="-14"/>
      <point x="660" y="78"/>
      <point x="660" y="294" type="curve"/>
      <point x="660" y="430"/>
      <point x="590" y="519"/>
      <point x="499" y="519" type="curve" smooth="yes"/>
      <point x="428" y="519"/>
      <point x="360" y="461"/>
      <point x="337" y="377" type="curve"/>
      <point x="335" y="377" type="line"/>
      <point x="312" y="461"/>
      <point x="244" y="519"/>
      <point x="175" y="519" type="curve" smooth="yes"/>
      <point x="85" y="519"/>
      <point x="40" y="456"/>
      <point x="40" y="387" type="curve" smooth="yes"/>
      <point x="40" y="352"/>
      <point x="49" y="323"/>
      <point x="70" y="296" type="curve"/>
      <point x="101" y="317" type="line"/>
      <point x="94" y="325"/>
      <point x="88" y="340"/>
      <point x="88" y="367" type="curve" smooth="yes"/>
      <point x="88" y="392"/>
      <point x="104" y="444"/>
      <point x="178" y="444" type="curve" smooth="yes"/>
      <point x="262" y="444"/>
      <point x="318" y="358"/>
      <point x="332" y="283" type="curve"/>
      <point x="340" y="283" type="line"/>
      <point x="354" y="358"/>
      <point x="410" y="444"/>
      <point x="494" y="444" type="curve" smooth="yes"/>
      <point x="567" y="444"/>
      <point x="622" y="392"/>
      <point x="622" y="295" type="curve"/>
      <point x="622" y="129"/>
      <point x="526" y="71"/>
      <point x="405" y="71" type="curve"/>
      <point x="310" y="71"/>
      <point x="279" y="96"/>
      <point x="279" y="127" type="curve" smooth="yes"/>
      <point x="279" y="153"/>
      <point x="310" y="184"/>
      <point x="382" y="184" type="curve" smooth="yes"/>
      <point x="527" y="184"/>
      <point x="609" y="48"/>
      <point x="609" y="-70" type="curve" smooth="yes"/>
      <point x="609" y="-85"/>
      <point x="620" y="-97"/>
      <point x="633" y="-97" type="curve" smooth="yes"/>
    </contour>
    <contour>
      <point x="655" y="367"/>
      <point x="710" y="444"/>
      <point x="791" y="444" type="curve" smooth="yes"/>
      <point x="865" y="444"/>
      <point x="881" y="392"/>
      <point x="881" y="367" type="curve" smooth="yes"/>
      <point x="881" y="340"/>
      <point x="875" y="325"/>
      <point x="868" y="317" type="curve"/>
      <point x="899" y="296" type="line"/>
      <point x="920" y="323"/>
      <point x="929" y="352"/>
      <point x="929" y="387" type="curve" smooth="yes"/>
      <point x="929" y="456"/>
      <point x="884" y="519"/>
      <point x="805" y="519" type="curve" smooth="yes"/>
      <point x="719" y="519"/>
      <point x="647" y="441"/>
      <point x="644" y="347" type="curve"/>
      <point x="654" y="293" type="line"/>
    </contour>
    <contour>
      <point x="1241" y="-13"/>
      <point x="1315" y="93"/>
      <point x="1315" y="239" type="curve" smooth="yes"/>
      <point x="1315" y="390"/>
      <point x="1245" y="509"/>
      <point x="1007" y="509" type="curve" smooth="yes"/>
      <point x="840" y="509" type="line"/>
      <point x="860" y="434" type="line"/>
      <point x="1016" y="434" type="line" smooth="yes"/>
      <point x="1210" y="434"/>
      <point x="1280" y="346"/>
      <point x="1280" y="236" type="curve" smooth="yes"/>
      <point x="1280" y="130"/>
      <point x="1218" y="69"/>
      <point x="1128" y="69" type="curve" smooth="yes"/>
      <point x="1055" y="69"/>
      <point x="1011" y="112"/>
      <point x="1010" y="170" type="curve" smooth="yes"/>
      <point x="1009" y="212"/>
      <point x="1031" y="238"/>
      <point x="1043" y="238" type="curve" smooth="yes"/>
      <point x="1048" y="238"/>
      <point x="1050" y="234"/>
      <point x="1049" y="228" type="curve"/>
      <point x="1050" y="192"/>
      <point x="1071" y="166"/>
      <point x="1104" y="166" type="curve" smooth="yes"/>
      <point x="1139" y="166"/>
      <point x="1165" y="195"/>
      <point x="1164" y="231" type="curve"/>
      <point x="1165" y="263"/>
      <point x="1140" y="300"/>
      <point x="1085" y="300" type="curve" smooth="yes"/>
      <point x="1013" y="300"/>
      <point x="973" y="236"/>
      <point x="972" y="158" type="curve" smooth="yes"/>
      <point x="973" y="59"/>
      <point x="1033" y="-13"/>
      <point x="1129" y="-13" type="curve" smooth="yes"/>
    </contour>
  </outline>
</glyph>
<glyph name="knNYAc2.following" format="1">
  <advance width="398"/>
  <outline>
    <contour>
      <point x="74" y="-530"/>
      <point x="82" y="-524"/>
      <point x="82" y="-502" type="curve" smooth="yes"/>
      <point x="82" y="-405"/>
      <point x="20" y="-299"/>
      <point x="-119" y="-299" type="curve" smooth="yes"/>
      <point x="-190" y="-299"/>
      <point x="-231" y="-326"/>
      <point x="-231" y="-381" type="curve" smooth="yes"/>
      <point x="-231" y="-436"/>
      <point x="-190" y="-470"/>
      <point x="-118" y="-470" type="curve" smooth="yes"/>
      <point x="-8" y="-470"/>
      <point x="86" y="-404"/>
      <point x="86" y="-248" type="curve"/>
      <point x="86" y="-150"/>
      <point x="36" y="-86"/>
      <point x="-35" y="-86" type="curve" smooth="yes"/>
      <point x="-93" y="-86"/>
      <point x="-133" y="-128"/>
      <point x="-150" y="-189" type="curve"/>
      <point x="-155" y="-189" type="line"/>
      <point x="-172" y="-128"/>
      <point x="-219" y="-86"/>
      <point x="-278" y="-86" type="curve" smooth="yes"/>
      <point x="-337" y="-86"/>
      <point x="-365" y="-126"/>
      <point x="-365" y="-181" type="curve" smooth="yes"/>
      <point x="-365" y="-207"/>
      <point x="-362" y="-230"/>
      <point x="-347" y="-250" type="curve"/>
      <point x="-321" y="-232" type="line"/>
      <point x="-329" y="-226"/>
      <point x="-331" y="-215"/>
      <point x="-331" y="-196" type="curve" smooth="yes"/>
      <point x="-331" y="-171"/>
      <point x="-319" y="-140"/>
      <point x="-266" y="-140" type="curve" smooth="yes"/>
      <point x="-206" y="-140"/>
      <point x="-169" y="-202"/>
      <point x="-159" y="-256" type="curve"/>
      <point x="-146" y="-256" type="line"/>
      <point x="-136" y="-202"/>
      <point x="-99" y="-140"/>
      <point x="-39" y="-140" type="curve" smooth="yes"/>
      <point x="14" y="-140"/>
      <point x="53" y="-178"/>
      <point x="53" y="-248" type="curve"/>
      <point x="53" y="-367"/>
      <point x="-16" y="-409"/>
      <point x="-113" y="-409" type="curve"/>
      <point x="-168" y="-409"/>
      <point x="-193" y="-396"/>
      <point x="-193" y="-371" type="curve" smooth="yes"/>
      <point x="-193" y="-347"/>
      <point x="-168" y="-334"/>
      <point x="-116" y="-334" type="curve" smooth="yes"/>
      <point x="-15" y="-334"/>
      <point x="41" y="-413"/>
      <point x="41" y="-508" type="curve" smooth="yes"/>
      <point x="41" y="-523"/>
      <point x="49" y="-530"/>
      <point x="61" y="-530" type="curve" smooth="yes"/>
    </contour>
    <contour>
      <point x="86" y="-203"/>
      <point x="127" y="-140"/>
      <point x="188" y="-140" type="curve" smooth="yes"/>
      <point x="238" y="-140"/>
      <point x="250" y="-178"/>
      <point x="250" y="-196" type="curve" smooth="yes"/>
      <point x="250" y="-215"/>
      <point x="246" y="-226"/>
      <point x="241" y="-232" type="curve"/>
      <point x="265" y="-248" type="line"/>
      <point x="280" y="-228"/>
      <point x="288" y="-207"/>
      <point x="288" y="-173" type="curve" smooth="yes"/>
      <point x="288" y="-132"/>
      <point x="253" y="-86"/>
      <point x="196" y="-86" type="curve" smooth="yes"/>
      <point x="126" y="-86"/>
      <point x="71" y="-143"/>
      <point x="69" y="-210" type="curve"/>
      <point x="85" y="-256" type="line"/>
    </contour>
  </outline>
</glyph>
<glyph name="knPHAc2" format="1">
  <advance width="59"/>
  <outline>
    <contour>
      <point x="-46" y="-538"/>
      <point x="-31" y="-527"/>
      <point x="-31" y="-501" type="curve" smooth="yes"/>
      <point x="-31" y="-473"/>
      <point x="-47" y="-467"/>
      <point x="-57" y="-390" type="curve"/>
      <point x="-66" y="-390" type="line"/>
      <point x="-76" y="-467"/>
      <point x="-95" y="-473"/>
      <point x="-95" y="-501" type="curve" smooth="yes"/>
      <point x="-95" y="-523"/>
      <point x="-79" y="-538"/>
      <point x="-62" y="-538" type="curve" smooth="yes"/>
    </contour>
    <contour>
      <point x="0" y="37"/>
      <point x="-8" y="29"/>
      <point x="-8" y="15" type="curve" smooth="yes"/>
      <point x="-8" y="3"/>
      <point x="-1" y="-4"/>
      <point x="10" y="-13" type="curve" smooth="yes"/>
      <point x="28" y="-28"/>
      <point x="116" y="-118"/>
      <point x="116" y="-258" type="curve" smooth="yes"/>
      <point x="116" y="-317"/>
      <point x="97" y="-374"/>
      <point x="41" y="-374" type="curve" smooth="yes"/>
      <point x="-6" y="-374"/>
      <point x="-45" y="-317"/>
      <point x="-55" y="-265" type="curve"/>
      <point x="-69" y="-265" type="line"/>
      <point x="-79" y="-317"/>
      <point x="-122" y="-374"/>
      <point x="-173" y="-374" type="curve" smooth="yes"/>
      <point x="-209" y="-374"/>
      <point x="-232" y="-354"/>
      <point x="-232" y="-313" type="curve" smooth="yes"/>
      <point x="-232" y="-277"/>
      <point x="-213" y="-261"/>
      <point x="-186" y="-261" type="curve" smooth="yes"/>
      <point x="-166" y="-261"/>
      <point x="-153" y="-272"/>
      <point x="-144" y="-288" type="curve"/>
      <point x="-127" y="-275" type="line"/>
      <point x="-135" y="-247"/>
      <point x="-155" y="-219"/>
      <point x="-188" y="-219" type="curve" smooth="yes"/>
      <point x="-238" y="-219"/>
      <point x="-260" y="-252"/>
      <point x="-260" y="-317" type="curve" smooth="yes"/>
      <point x="-260" y="-383"/>
      <point x="-233" y="-429"/>
      <point x="-174" y="-429" type="curve" smooth="yes"/>
      <point x="-128" y="-429"/>
      <point x="-79" y="-397"/>
      <point x="-65" y="-338" type="curve"/>
      <point x="-59" y="-338" type="line"/>
      <point x="-45" y="-397"/>
      <point x="4" y="-429"/>
      <point x="50" y="-429" type="curve" smooth="yes"/>
      <point x="113" y="-429"/>
      <point x="139" y="-359"/>
      <point x="139" y="-280" type="curve" smooth="yes"/>
      <point x="139" y="-74"/>
      <point x="52" y="37"/>
      <point x="15" y="37" type="curve" smooth="yes"/>
    </contour>
  </outline>
</glyph>
<glyph name="knPI" format="1">
  <advance width="697"/>
  <outline>
    <contour>
      <point x="251" y="-14"/>
      <point x="321" y="43"/>
      <point x="344" y="126" type="curve"/>
      <point x="346" y="126" type="line"/>
      <point x="369" y="43"/>
      <point x="438" y="-14"/>
      <point x="503" y="-14" type="curve" smooth="yes"/>
      <point x="598" y="-14"/>
      <point x="635" y="84"/>
      <point x="635" y="179" type="curve" smooth="yes"/>
      <point x="635" y="271"/>
      <point x="613" y="392"/>
      <point x="561" y="392" type="curve" smooth="yes"/>
      <point x="536" y="392"/>
      <point x="519" y="375"/>
      <point x="519" y="352" type="curve" smooth="yes"/>
      <point x="519" y="304"/>
      <point x="600" y="339"/>
      <point x="600" y="202" type="curve" smooth="yes"/>
      <point x="600" y="131"/>
      <point x="569" y="71"/>
      <point x="493" y="71" type="curve" smooth="yes"/>
      <point x="428" y="71"/>
      <point x="363" y="145"/>
      <point x="349" y="221" type="curve"/>
      <point x="340" y="221" type="line"/>
      <point x="326" y="145"/>
      <point x="261" y="71"/>
      <point x="186" y="71" type="curve" smooth="yes"/>
      <point x="135" y="71"/>
      <point x="100" y="104"/>
      <point x="100" y="156" type="curve" smooth="yes"/>
      <point x="100" y="201"/>
      <point x="129" y="227"/>
      <point x="166" y="227" type="curve" smooth="yes"/>
      <point x="196" y="227"/>
      <point x="221" y="217"/>
      <point x="232" y="193" type="curve"/>
      <point x="248" y="208" type="line"/>
      <point x="235" y="250"/>
      <point x="211" y="287"/>
      <point x="163" y="287" type="curve" smooth="yes"/>
      <point x="103" y="287"/>
      <point x="60" y="232"/>
      <point x="60" y="143" type="curve" smooth="yes"/>
      <point x="60" y="56"/>
      <point x="109" y="-14"/>
      <point x="183" y="-14" type="curve" smooth="yes"/>
    </contour>
    <contour>
      <point x="421" y="328"/>
      <point x="493" y="400"/>
      <point x="493" y="494" type="curve" smooth="yes"/>
      <point x="493" y="581"/>
      <point x="432" y="674"/>
      <point x="348" y="674" type="curve" smooth="yes"/>
      <point x="289" y="674"/>
      <point x="253" y="629"/>
      <point x="253" y="560" type="curve" smooth="yes"/>
      <point x="253" y="499"/>
      <point x="293" y="450"/>
      <point x="349" y="451" type="curve" smooth="yes"/>
      <point x="407" y="452"/>
      <point x="437" y="505"/>
      <point x="437" y="563" type="curve" smooth="yes"/>
      <point x="437" y="594"/>
      <point x="430" y="612"/>
      <point x="419" y="627" type="curve"/>
      <point x="391" y="631" type="line"/>
      <point x="405" y="617"/>
      <point x="409" y="601"/>
      <point x="409" y="578" type="curve" smooth="yes"/>
      <point x="409" y="548"/>
      <point x="390" y="511"/>
      <point x="343" y="511" type="curve" smooth="yes"/>
      <point x="307" y="511"/>
      <point x="286" y="530"/>
      <point x="286" y="560" type="curve" smooth="yes"/>
      <point x="286" y="583"/>
      <point x="306" y="608"/>
      <point x="350" y="608" type="curve" smooth="yes"/>
      <point x="416" y="608"/>
      <point x="461" y="549"/>
      <point x="461" y="498" type="curve" smooth="yes"/>
      <point x="461" y="431"/>
      <point x="391" y="373"/>
      <point x="270" y="359" type="curve"/>
      <point x="299" y="308" type="line"/>
    </contour>
  </outline>
</glyph>
<glyph name="knPU" format="1">
  <advance width="999"/>
  <outline>
    <contour>
      <point x="828" y="-184"/>
      <point x="944" y="5"/>
      <point x="944" y="205" type="curve" smooth="yes"/>
      <point x="944" y="415"/>
      <point x="848" y="513"/>
      <point x="777" y="513" type="curve" smooth="yes"/>
      <point x="746" y="513"/>
      <point x="729" y="493"/>
      <point x="729" y="470" type="curve" smooth="yes"/>
      <point x="729" y="451"/>
      <point x="741" y="435"/>
      <point x="757" y="430" type="curve" smooth="yes"/>
      <point x="780" y="423"/>
      <point x="801" y="428"/>
      <point x="825" y="420" type="curve" smooth="yes"/>
      <point x="862" y="407"/>
      <point x="909" y="344"/>
      <point x="909" y="212" type="curve" smooth="yes"/>
      <point x="909" y="37"/>
      <point x="825" y="-97"/>
      <point x="642" y="-97" type="curve" smooth="yes"/>
      <point x="512" y="-97"/>
      <point x="430" y="-35"/>
      <point x="399" y="51" type="curve"/>
      <point x="346" y="126" type="line"/>
      <point x="383" y="-81"/>
      <point x="497" y="-184"/>
      <point x="643" y="-184" type="curve" smooth="yes"/>
    </contour>
    <contour>
      <point x="251" y="-14"/>
      <point x="321" y="43"/>
      <point x="344" y="126" type="curve"/>
      <point x="346" y="126" type="line"/>
      <point x="369" y="43"/>
      <point x="438" y="-14"/>
      <point x="503" y="-14" type="curve" smooth="yes"/>
      <point x="598" y="-14"/>
      <point x="635" y="84"/>
      <point x="635" y="179" type="curve" smooth="yes"/>
      <point x="635" y="271"/>
      <point x="613" y="392"/>
      <point x="561" y="392" type="curve" smooth="yes"/>
      <point x="536" y="392"/>
      <point x="519" y="375"/>
      <point x="519" y="352" type="curve" smooth="yes"/>
      <point x="519" y="304"/>
      <point x="600" y="339"/>
      <point x="600" y="202" type="curve" smooth="yes"/>
      <point x="600" y="131"/>
      <point x="569" y="71"/>
      <point x="493" y="71" type="curve" smooth="yes"/>
      <point x="428" y="71"/>
      <point x="363" y="145"/>
      <point x="349" y="221" type="curve"/>
      <point x="340" y="221" type="line"/>
      <point x="326" y="145"/>
      <point x="261" y="71"/>
      <point x="186" y="71" type="curve" smooth="yes"/>
      <point x="135" y="71"/>
      <point x="100" y="104"/>
      <point x="100" y="156" type="curve" smooth="yes"/>
      <point x="100" y="201"/>
      <point x="129" y="227"/>
      <point x="166" y="227" type="curve" smooth="yes"/>
      <point x="196" y="227"/>
      <point x="221" y="217"/>
      <point x="232" y="193" type="curve"/>
      <point x="248" y="208" type="line"/>
      <point x="235" y="250"/>
      <point x="211" y="287"/>
      <point x="163" y="287" type="curve" smooth="yes"/>
      <point x="103" y="287"/>
      <point x="60" y="232"/>
      <point x="60" y="143" type="curve" smooth="yes"/>
      <point x="60" y="56"/>
      <point x="109" y="-14"/>
      <point x="183" y="-14" type="curve" smooth="yes"/>
    </contour>
    <contour>
      <point x="376" y="271"/>
      <point x="403" y="298"/>
      <point x="403" y="331" type="curve" smooth="yes"/>
      <point x="403" y="363"/>
      <point x="376" y="390"/>
      <point x="343" y="390" type="curve" smooth="yes"/>
      <point x="309" y="390"/>
      <point x="284" y="363"/>
      <point x="284" y="331" type="curve" smooth="yes"/>
      <point x="284" y="298"/>
      <point x="309" y="271"/>
      <point x="343" y="271" type="curve" smooth="yes"/>
    </contour>
    <contour>
      <point x="521" y="434" type="line" smooth="yes"/>
      <point x="602" y="434"/>
      <point x="656" y="480"/>
      <point x="656" y="552" type="curve" smooth="yes"/>
      <point x="656" y="607"/>
      <point x="625" y="648"/>
      <point x="582" y="664" type="curve"/>
      <point x="567" y="644" type="line"/>
      <point x="591" y="635"/>
      <point x="613" y="610"/>
      <point x="613" y="576" type="curve" smooth="yes"/>
      <point x="613" y="536"/>
      <point x="582" y="509"/>
      <point x="521" y="509" type="curve" smooth="yes"/>
      <point x="60" y="509" type="line"/>
      <point x="60" y="434" type="line"/>
    </contour>
  </outline>
</glyph>
<glyph name="knRAU" format="1">
  <advance width="1009"/>
  <outline>
    <contour>
      <point x="421" y="-14"/>
      <point x="515" y="86"/>
      <point x="515" y="226" type="curve" smooth="yes"/>
      <point x="515" y="315"/>
      <point x="469" y="398"/>
      <point x="395" y="436" type="curve" smooth="yes"/>
      <point x="363" y="453"/>
      <point x="326" y="461"/>
      <point x="285" y="461" type="curve" smooth="yes"/>
      <point x="244" y="461"/>
      <point x="207" y="453"/>
      <point x="175" y="436" type="curve" smooth="yes"/>
      <point x="101" y="398"/>
      <point x="55" y="315"/>
      <point x="55" y="226" type="curve" smooth="yes"/>
      <point x="55" y="86"/>
      <point x="149" y="-14"/>
      <point x="285" y="-14" type="curve" smooth="yes"/>
    </contour>
    <contour>
      <point x="175" y="71"/>
      <point x="100" y="144"/>
      <point x="100" y="247" type="curve" smooth="yes"/>
      <point x="100" y="348"/>
      <point x="184" y="433"/>
      <point x="285" y="433" type="curve" smooth="yes"/>
      <point x="386" y="433"/>
      <point x="470" y="349"/>
      <point x="470" y="248" type="curve" smooth="yes"/>
      <point x="470" y="145"/>
      <point x="394" y="71"/>
      <point x="285" y="71" type="curve" smooth="yes"/>
    </contour>
    <contour>
      <point x="218" y="434" type="line"/>
      <point x="284" y="451" type="line"/>
      <point x="348" y="434" type="line"/>
      <point x="380" y="434" type="line"/>
      <point x="380" y="509" type="line"/>
      <point x="55" y="509" type="line"/>
      <point x="55" y="434" type="line"/>
    </contour>
    <component base="knmAU" xOffset="580"/>
  </outline>
</glyph>
<glyph name="knRI" format="1">
  <advance width="613"/>
  <outline>
    <contour>
      <point x="484" y="-14"/>
      <point x="578" y="86"/>
      <point x="578" y="226" type="curve" smooth="yes"/>
      <point x="578" y="315"/>
      <point x="532" y="398"/>
      <point x="458" y="436" type="curve" smooth="yes"/>
      <point x="426" y="453"/>
      <point x="389" y="461"/>
      <point x="348" y="461" type="curve" smooth="yes"/>
      <point x="307" y="461"/>
      <point x="270" y="453"/>
      <point x="238" y="436" type="curve" smooth="yes"/>
      <point x="164" y="398"/>
      <point x="118" y="315"/>
      <point x="118" y="226" type="curve" smooth="yes"/>
      <point x="118" y="86"/>
      <point x="212" y="-14"/>
      <point x="348" y="-14" type="curve" smooth="yes"/>
    </contour>
    <contour>
      <point x="238" y="71"/>
      <point x="163" y="144"/>
      <point x="163" y="247" type="curve" smooth="yes"/>
      <point x="163" y="348"/>
      <point x="247" y="433"/>
      <point x="348" y="433" type="curve" smooth="yes"/>
      <point x="449" y="433"/>
      <point x="533" y="349"/>
      <point x="533" y="248" type="curve" smooth="yes"/>
      <point x="533" y="145"/>
      <point x="457" y="71"/>
      <point x="348" y="71" type="curve" smooth="yes"/>
    </contour>
    <contour>
      <point x="558" y="325" type="line"/>
      <point x="500" y="468"/>
      <point x="353" y="634"/>
      <point x="189" y="634" type="curve" smooth="yes"/>
      <point x="103" y="634"/>
      <point x="55" y="589"/>
      <point x="55" y="521" type="curve"/>
      <point x="55" y="425"/>
      <point x="140" y="396"/>
      <point x="224" y="410" type="curve"/>
      <point x="254" y="424" type="line"/>
      <point x="273" y="450" type="line"/>
      <point x="169" y="415"/>
      <point x="133" y="468"/>
      <point x="133" y="516" type="curve"/>
      <point x="133" y="558"/>
      <point x="164" y="585"/>
      <point x="220" y="585" type="curve" smooth="yes"/>
      <point x="308" y="585"/>
      <point x="489" y="466"/>
      <point x="534" y="293" type="curve"/>
    </contour>
  </outline>
</glyph>
<glyph name="knSA.base" format="1">
  <advance width="675"/>
  <outline>
    <contour>
      <point x="110" y="120"/>
      <point x="162" y="170"/>
      <point x="228" y="170" type="curve" smooth="yes"/>
      <point x="375" y="170"/>
      <point x="397" y="-14"/>
      <point x="510" y="-14" type="curve" smooth="yes"/>
      <point x="587" y="-14"/>
      <point x="620" y="62"/>
      <point x="620" y="150" type="curve" smooth="yes"/>
      <point x="620" y="237"/>
      <point x="591" y="319"/>
      <point x="531" y="377" type="curve"/>
      <point x="508" y="360" type="line"/>
      <point x="550" y="310"/>
      <point x="576" y="249"/>
      <point x="576" y="188" type="curve" smooth="yes"/>
      <point x="576" y="114"/>
      <point x="546" y="71"/>
      <point x="497" y="71" type="curve" smooth="yes"/>
      <point x="379" y="71"/>
      <point x="362" y="247"/>
      <point x="229" y="247" type="curve" smooth="yes"/>
      <point x="134" y="247"/>
      <point x="74" y="144"/>
      <point x="74" y="-6" type="curve"/>
      <point x="103" y="-14" type="line"/>
    </contour>
    <contour>
      <point x="355" y="288"/>
      <point x="377" y="314"/>
      <point x="377" y="347" type="curve" smooth="yes"/>
      <point x="377" y="380"/>
      <point x="355" y="404"/>
      <point x="319" y="404" type="curve" smooth="yes"/>
      <point x="283" y="404"/>
      <point x="261" y="380"/>
      <point x="261" y="347" type="curve" smooth="yes"/>
      <point x="261" y="314"/>
      <point x="283" y="288"/>
      <point x="319" y="288" type="curve" smooth="yes"/>
    </contour>
    <contour>
      <point x="489" y="434" type="line"/>
      <point x="489" y="509" type="line"/>
      <point x="45" y="509" type="line"/>
      <point x="45" y="434" type="line"/>
    </contour>
  </outline>
</glyph>
<glyph name="knTAc2_RAc2" format="1">
  <advance width="150"/>
  <outline>
    <contour>
      <point x="-399" y="-236"/>
      <point x="-404" y="-227"/>
      <point x="-404" y="-209" type="curve" smooth="yes"/>
      <point x="-404" y="-192"/>
      <point x="-399" y="-182"/>
      <point x="-395" y="-182" type="curve"/>
      <point x="-67" y="-182" type="line"/>
      <point x="-40" y="-182"/>
      <point x="-14" y="-172"/>
      <point x="-14" y="-144" type="curve" smooth="yes"/>
      <point x="-14" y="-118"/>
      <point x="-34" y="-105"/>
      <point x="-68" y="-105" type="curve" smooth="yes"/>
      <point x="-97" y="-105"/>
      <point x="-119" y="-118"/>
      <point x="-119" y="-148" type="curve" smooth="yes"/>
      <point x="-119" y="-169"/>
      <point x="-109" y="-188"/>
      <point x="-75" y="-202" type="curve"/>
      <point x="-128" y="-195" type="line"/>
      <point x="-138" y="-181"/>
      <point x="-139" y="-164"/>
      <point x="-139" y="-148" type="curve" smooth="yes"/>
      <point x="-139" y="-92"/>
      <point x="-109" y="-53"/>
      <point x="-67" y="-53" type="curve" smooth="yes"/>
      <point x="-23" y="-53"/>
      <point x="7" y="-89"/>
      <point x="7" y="-139" type="curve" smooth="yes"/>
      <point x="7" y="-185"/>
      <point x="-19" y="-236"/>
      <point x="-91" y="-236" type="curve"/>
      <point x="-395" y="-236" type="line"/>
    </contour>
    <contour>
      <point x="-59" y="-354"/>
      <point x="106" y="-282"/>
      <point x="106" y="-138" type="curve" smooth="yes"/>
      <point x="106" y="-95"/>
      <point x="90" y="-75"/>
      <point x="80" y="-64" type="curve" smooth="yes"/>
      <point x="72" y="-56"/>
      <point x="68" y="-46"/>
      <point x="68" y="-36" type="curve" smooth="yes"/>
      <point x="68" y="-20"/>
      <point x="76" y="-11"/>
      <point x="91" y="-11" type="curve" smooth="yes"/>
      <point x="122" y="-11"/>
      <point x="132" y="-56"/>
      <point x="132" y="-105" type="curve" smooth="yes"/>
      <point x="132" y="-260"/>
      <point x="40" y="-405"/>
      <point x="-200" y="-405" type="curve" smooth="yes"/>
      <point x="-292" y="-405"/>
      <point x="-356" y="-383"/>
      <point x="-404" y="-351" type="curve"/>
      <point x="-398" y="-329" type="line"/>
      <point x="-354" y="-347"/>
      <point x="-298" y="-354"/>
      <point x="-237" y="-354" type="curve" smooth="yes"/>
    </contour>
  </outline>
</glyph>
<glyph name="knTTA.base" format="1">
  <advance width="805"/>
  <outline>
    <contour>
      <point x="318" y="-14"/>
      <point x="386" y="43"/>
      <point x="409" y="126" type="curve"/>
      <point x="411" y="126" type="line"/>
      <point x="434" y="43"/>
      <point x="502" y="-14"/>
      <point x="572" y="-14" type="curve" smooth="yes"/>
      <point x="683" y="-14"/>
      <point x="745" y="78"/>
      <point x="745" y="214" type="curve" smooth="yes"/>
      <point x="745" y="329"/>
      <point x="671" y="457"/>
      <point x="563" y="473" type="curve"/>
      <point x="533" y="473" type="line"/>
      <point x="549" y="434" type="line"/>
      <point x="647" y="426"/>
      <point x="706" y="302"/>
      <point x="706" y="227" type="curve" smooth="yes"/>
      <point x="706" y="138"/>
      <point x="654" y="71"/>
      <point x="566" y="71" type="curve" smooth="yes"/>
      <point x="493" y="71"/>
      <point x="427" y="146"/>
      <point x="414" y="221" type="curve"/>
      <point x="405" y="221" type="line"/>
      <point x="391" y="145"/>
      <point x="323" y="71"/>
      <point x="248" y="71" type="curve" smooth="yes"/>
      <point x="157" y="71"/>
      <point x="100" y="149"/>
      <point x="100" y="252" type="curve" smooth="yes"/>
      <point x="100" y="345"/>
      <point x="142" y="414"/>
      <point x="235" y="414" type="curve" smooth="yes"/>
      <point x="273" y="414"/>
      <point x="307" y="400"/>
      <point x="307" y="361" type="curve" smooth="yes"/>
      <point x="307" y="325"/>
      <point x="279" y="304"/>
      <point x="232" y="304" type="curve" smooth="yes"/>
      <point x="190" y="304"/>
      <point x="159" y="325"/>
      <point x="159" y="368" type="curve" smooth="yes"/>
      <point x="159" y="379"/>
      <point x="163" y="400"/>
      <point x="166" y="410" type="curve"/>
      <point x="135" y="389" type="line"/>
      <point x="132" y="367"/>
      <point x="131" y="354"/>
      <point x="131" y="341" type="curve" smooth="yes"/>
      <point x="131" y="268"/>
      <point x="174" y="233"/>
      <point x="232" y="233" type="curve" smooth="yes"/>
      <point x="295" y="233"/>
      <point x="337" y="285"/>
      <point x="337" y="351" type="curve" smooth="yes"/>
      <point x="337" y="417"/>
      <point x="301" y="479"/>
      <point x="230" y="479" type="curve" smooth="yes"/>
      <point x="128" y="479"/>
      <point x="60" y="372"/>
      <point x="60" y="241" type="curve" smooth="yes"/>
      <point x="60" y="82"/>
      <point x="137" y="-14"/>
      <point x="248" y="-14" type="curve" smooth="yes"/>
    </contour>
    <contour>
      <point x="234" y="468" type="line"/>
      <point x="192" y="497"/>
      <point x="174" y="524"/>
      <point x="174" y="561" type="curve" smooth="yes"/>
      <point x="174" y="606"/>
      <point x="197" y="637"/>
      <point x="249" y="649" type="curve"/>
      <point x="240" y="671" type="line"/>
      <point x="156" y="666"/>
      <point x="110" y="620"/>
      <point x="110" y="566" type="curve" smooth="yes"/>
      <point x="110" y="511"/>
      <point x="159" y="471"/>
      <point x="213" y="452" type="curve"/>
    </contour>
    <contour>
      <point x="600" y="509" type="line"/>
      <point x="525" y="509" type="line"/>
      <point x="525" y="434" type="line"/>
      <point x="599" y="434" type="line"/>
    </contour>
  </outline>
</glyph>
<glyph name="knTTAA" format="1">
  <advance width="1235"/>
  <outline>
    <contour>
      <point x="1101" y="-13"/>
      <point x="1175" y="93"/>
      <point x="1175" y="239" type="curve" smooth="yes"/>
      <point x="1175" y="390"/>
      <point x="1105" y="509"/>
      <point x="867" y="509" type="curve" smooth="yes"/>
      <point x="590" y="509" type="line"/>
      <point x="590" y="434" type="line"/>
      <point x="876" y="434" type="line" smooth="yes"/>
      <point x="1070" y="434"/>
      <point x="1140" y="346"/>
      <point x="1140" y="236" type="curve" smooth="yes"/>
      <point x="1140" y="130"/>
      <point x="1078" y="69"/>
      <point x="988" y="69" type="curve" smooth="yes"/>
      <point x="915" y="69"/>
      <point x="871" y="112"/>
      <point x="870" y="170" type="curve" smooth="yes"/>
      <point x="869" y="212"/>
      <point x="891" y="238"/>
      <point x="903" y="238" type="curve" smooth="yes"/>
      <point x="908" y="238"/>
      <point x="910" y="234"/>
      <point x="909" y="228" type="curve"/>
      <point x="910" y="192"/>
      <point x="931" y="166"/>
      <point x="964" y="166" type="curve" smooth="yes"/>
      <point x="999" y="166"/>
      <point x="1025" y="195"/>
      <point x="1024" y="231" type="curve"/>
      <point x="1025" y="263"/>
      <point x="1000" y="300"/>
      <point x="945" y="300" type="curve" smooth="yes"/>
      <point x="873" y="300"/>
      <point x="833" y="236"/>
      <point x="832" y="158" type="curve" smooth="yes"/>
      <point x="833" y="59"/>
      <point x="893" y="-13"/>
      <point x="989" y="-13" type="curve" smooth="yes"/>
    </contour>
    <contour>
      <point x="318" y="-14"/>
      <point x="386" y="43"/>
      <point x="409" y="126" type="curve"/>
      <point x="411" y="126" type="line"/>
      <point x="434" y="43"/>
      <point x="502" y="-14"/>
      <point x="572" y="-14" type="curve" smooth="yes"/>
      <point x="683" y="-14"/>
      <point x="745" y="78"/>
      <point x="745" y="214" type="curve" smooth="yes"/>
      <point x="745" y="329"/>
      <point x="671" y="457"/>
      <point x="563" y="473" type="curve"/>
      <point x="533" y="473" type="line"/>
      <point x="549" y="434" type="line"/>
      <point x="647" y="426"/>
      <point x="706" y="302"/>
      <point x="706" y="227" type="curve" smooth="yes"/>
      <point x="706" y="138"/>
      <point x="654" y="71"/>
      <point x="566" y="71" type="curve" smooth="yes"/>
      <point x="493" y="71"/>
      <point x="427" y="146"/>
      <point x="414" y="221" type="curve"/>
      <point x="405" y="221" type="line"/>
      <point x="391" y="145"/>
      <point x="323" y="71"/>
      <point x="248" y="71" type="curve" smooth="yes"/>
      <point x="157" y="71"/>
      <point x="100" y="149"/>
      <point x="100" y="252" type="curve" smooth="yes"/>
      <point x="100" y="345"/>
      <point x="142" y="414"/>
      <point x="235" y="414" type="curve" smooth="yes"/>
      <point x="273" y="414"/>
      <point x="307" y="400"/>
      <point x="307" y="361" type="curve" smooth="yes"/>
      <point x="307" y="325"/>
      <point x="279" y="304"/>
      <point x="232" y="304" type="curve" smooth="yes"/>
      <point x="190" y="304"/>
      <point x="159" y="325"/>
      <point x="159" y="368" type="curve" smooth="yes"/>
      <point x="159" y="379"/>
      <point x="163" y="400"/>
      <point x="166" y="410" type="curve"/>
      <point x="135" y="389" type="line"/>
      <point x="132" y="367"/>
      <point x="131" y="354"/>
      <point x="131" y="341" type="curve" smooth="yes"/>
      <point x="131" y="268"/>
      <point x="174" y="233"/>
      <point x="232" y="233" type="curve" smooth="yes"/>
      <point x="295" y="233"/>
      <point x="337" y="285"/>
      <point x="337" y="351" type="curve" smooth="yes"/>
      <point x="337" y="417"/>
      <point x="301" y="479"/>
      <point x="230" y="479" type="curve" smooth="yes"/>
      <point x="128" y="479"/>
      <point x="60" y="372"/>
      <point x="60" y="241" type="curve" smooth="yes"/>
      <point x="60" y="82"/>
      <point x="137" y="-14"/>
      <point x="248" y="-14" type="curve" smooth="yes"/>
    </contour>
    <contour>
      <point x="234" y="468" type="line"/>
      <point x="192" y="497"/>
      <point x="174" y="524"/>
      <point x="174" y="561" type="curve" smooth="yes"/>
      <point x="174" y="606"/>
      <point x="197" y="637"/>
      <point x="249" y="649" type="curve"/>
      <point x="240" y="671" type="line"/>
      <point x="156" y="666"/>
      <point x="110" y="620"/>
      <point x="110" y="566" type="curve" smooth="yes"/>
      <point x="110" y="511"/>
      <point x="159" y="471"/>
      <point x="213" y="452" type="curve"/>
    </contour>
    <contour>
      <point x="600" y="509" type="line"/>
      <point x="525" y="509" type="line"/>
      <point x="525" y="434" type="line"/>
      <point x="599" y="434" type="line"/>
    </contour>
  </outline>
</glyph>
<glyph name="knTTE" format="1">
  <advance width="790"/>
  <outline>
    <contour>
      <point x="318" y="-14"/>
      <point x="386" y="43"/>
      <point x="409" y="126" type="curve"/>
      <point x="411" y="126" type="line"/>
      <point x="434" y="43"/>
      <point x="502" y="-14"/>
      <point x="572" y="-14" type="curve" smooth="yes"/>
      <point x="683" y="-14"/>
      <point x="745" y="78"/>
      <point x="745" y="214" type="curve" smooth="yes"/>
      <point x="745" y="329"/>
      <point x="671" y="457"/>
      <point x="563" y="473" type="curve"/>
      <point x="533" y="473" type="line"/>
      <point x="549" y="434" type="line"/>
      <point x="647" y="426"/>
      <point x="706" y="302"/>
      <point x="706" y="227" type="curve" smooth="yes"/>
      <point x="706" y="138"/>
      <point x="654" y="71"/>
      <point x="566" y="71" type="curve" smooth="yes"/>
      <point x="493" y="71"/>
      <point x="427" y="146"/>
      <point x="414" y="221" type="curve"/>
      <point x="405" y="221" type="line"/>
      <point x="391" y="145"/>
      <point x="323" y="71"/>
      <point x="248" y="71" type="curve" smooth="yes"/>
      <point x="157" y="71"/>
      <point x="100" y="149"/>
      <point x="100" y="252" type="curve" smooth="yes"/>
      <point x="100" y="345"/>
      <point x="142" y="414"/>
      <point x="235" y="414" type="curve" smooth="yes"/>
      <point x="273" y="414"/>
      <point x="307" y="400"/>
      <point x="307" y="361" type="curve" smooth="yes"/>
      <point x="307" y="325"/>
      <point x="279" y="304"/>
      <point x="232" y="304" type="curve" smooth="yes"/>
      <point x="190" y="304"/>
      <point x="159" y="325"/>
      <point x="159" y="368" type="curve" smooth="yes"/>
      <point x="159" y="379"/>
      <point x="163" y="400"/>
      <point x="166" y="410" type="curve"/>
      <point x="135" y="389" type="line"/>
      <point x="132" y="367"/>
      <point x="131" y="354"/>
      <point x="131" y="341" type="curve" smooth="yes"/>
      <point x="131" y="268"/>
      <point x="174" y="233"/>
      <point x="232" y="233" type="curve" smooth="yes"/>
      <point x="295" y="233"/>
      <point x="337" y="285"/>
      <point x="337" y="351" type="curve" smooth="yes"/>
      <point x="337" y="417"/>
      <point x="301" y="479"/>
      <point x="230" y="479" type="curve" smooth="yes"/>
      <point x="128" y="479"/>
      <point x="60" y="372"/>
      <point x="60" y="241" type="curve" smooth="yes"/>
      <point x="60" y="82"/>
      <point x="137" y="-14"/>
      <point x="248" y="-14" type="curve" smooth="yes"/>
    </contour>
    <contour>
      <point x="234" y="468" type="line"/>
      <point x="192" y="497"/>
      <point x="174" y="524"/>
      <point x="174" y="561" type="curve" smooth="yes"/>
      <point x="174" y="606"/>
      <point x="197" y="637"/>
      <point x="249" y="649" type="curve"/>
      <point x="240" y="671" type="line"/>
      <point x="156" y="666"/>
      <point x="110" y="620"/>
      <point x="110" y="566" type="curve" smooth="yes"/>
      <point x="110" y="511"/>
      <point x="159" y="471"/>
      <point x="213" y="452" type="curve"/>
    </contour>
    <contour>
      <point x="680" y="434"/>
      <point x="734" y="480"/>
      <point x="734" y="553" type="curve" smooth="yes"/>
      <point x="734" y="651"/>
      <point x="656" y="685"/>
      <point x="599" y="685" type="curve" smooth="yes"/>
      <point x="544" y="685"/>
      <point x="516" y="657"/>
      <point x="516" y="625" type="curve" smooth="yes"/>
      <point x="516" y="592"/>
      <point x="539" y="571"/>
      <point x="573" y="571" type="curve" smooth="yes"/>
      <point x="607" y="571"/>
      <point x="628" y="597"/>
      <point x="628" y="633" type="curve" smooth="yes"/>
      <point x="628" y="639"/>
      <point x="630" y="643"/>
      <point x="634" y="643" type="curve" smooth="yes"/>
      <point x="647" y="643"/>
      <point x="691" y="629"/>
      <point x="691" y="577" type="curve"/>
      <point x="691" y="530"/>
      <point x="651" y="509"/>
      <point x="600" y="509" type="curve"/>
      <point x="525" y="509" type="line"/>
      <point x="525" y="434" type="line"/>
      <point x="599" y="434" type="line"/>
    </contour>
  </outline>
</glyph>
<glyph name="knVU" format="1">
  <advance width="999"/>
  <outline>
    <contour>
      <point x="828" y="-184"/>
      <point x="944" y="5"/>
      <point x="944" y="205" type="curve" smooth="yes"/>
      <point x="944" y="415"/>
      <point x="848" y="513"/>
      <point x="777" y="513" type="curve" smooth="yes"/>
      <point x="746" y="513"/>
      <point x="729" y="493"/>
      <point x="729" y="470" type="curve" smooth="yes"/>
      <point x="729" y="451"/>
      <point x="741" y="435"/>
      <point x="757" y="430" type="curve" smooth="yes"/>
      <point x="780" y="423"/>
      <point x="801" y="428"/>
      <point x="825" y="420" type="curve" smooth="yes"/>
      <point x="862" y="407"/>
      <point x="909" y="344"/>
      <point x="909" y="212" type="curve" smooth="yes"/>
      <point x="909" y="37"/>
      <point x="825" y="-97"/>
      <point x="642" y="-97" type="curve" smooth="yes"/>
      <point x="512" y="-97"/>
      <point x="430" y="-35"/>
      <point x="399" y="51" type="curve"/>
      <point x="346" y="126" type="line"/>
      <point x="383" y="-81"/>
      <point x="497" y="-184"/>
      <point x="643" y="-184" type="curve" smooth="yes"/>
    </contour>
    <component base="knVA"/>
  </outline>
</glyph>
<glyph name="less.sups" format="1">
  <advance width="354"/>
  <outline>
    <contour>
      <point x="322" y="437" type="line" smooth="yes"/>
      <point x="327" y="437"/>
      <point x="330" y="439"/>
      <point x="330" y="444" type="curve" smooth="yes"/>
      <point x="330" y="459"/>
      <point x="325" y="468"/>
      <point x="314" y="473" type="curve" smooth="yes"/>
      <point x="67" y="577" type="line"/>
      <point x="65" y="578"/>
      <point x="65" y="579"/>
      <point x="66" y="580" type="curve"/>
      <point x="309" y="685" type="line"/>
      <point x="318" y="688"/>
      <point x="324" y="697"/>
      <point x="329" y="712" type="curve"/>
      <point x="330" y="716"/>
      <point x="326" y="721"/>
      <point x="322" y="721" type="curve" smooth="yes"/>
      <point x="320" y="721" type="line"/>
      <point x="36" y="601" type="line"/>
      <point x="24" y="597"/>
      <point x="15" y="580"/>
      <point x="15" y="574" type="curve" smooth="yes"/>
      <point x="15" y="571"/>
      <point x="24" y="565"/>
      <point x="42" y="557" type="curve" smooth="yes"/>
      <point x="320" y="437" type="line"/>
    </contour>
  </outline>
</glyph>
